<?xml version="1.0" encoding="utf-8" standalone="no"?>
<!DOCTYPE svg PUBLIC "-//W3C//DTD SVG 1.1//EN"
  "http://www.w3.org/Graphics/SVG/1.1/DTD/svg11.dtd">
<svg xmlns:xlink="http://www.w3.org/1999/xlink" width="553.44pt" height="569.585625pt" viewBox="0 0 553.44 569.585625" xmlns="http://www.w3.org/2000/svg" version="1.1">
 <metadata>
  <rdf:RDF xmlns:dc="http://purl.org/dc/elements/1.1/" xmlns:cc="http://creativecommons.org/ns#" xmlns:rdf="http://www.w3.org/1999/02/22-rdf-syntax-ns#">
   <cc:Work>
    <dc:type rdf:resource="http://purl.org/dc/dcmitype/StillImage"/>
    <dc:date>2025-08-06T17:34:45.661986</dc:date>
    <dc:format>image/svg+xml</dc:format>
    <dc:creator>
     <cc:Agent>
      <dc:title>Matplotlib v3.10.5, https://matplotlib.org/</dc:title>
     </cc:Agent>
    </dc:creator>
   </cc:Work>
  </rdf:RDF>
 </metadata>
 <defs>
  <style type="text/css">*{stroke-linejoin: round; stroke-linecap: butt}</style>
 </defs>
 <g id="figure_1">
  <g id="patch_1">
   <path d="M 0 569.585625 
L 553.44 569.585625 
L 553.44 0 
L 0 0 
z
" style="fill: #ffffff"/>
  </g>
  <g id="axes_1">
   <g id="matplotlib.axis_1"/>
   <g id="matplotlib.axis_2"/>
   <g id="patch_2">
    <path d="M 273.004473 67.129323 
C 247.650666 67.129323 222.494436 71.60127 198.693959 80.339279 
C 174.893481 89.077287 152.8197 101.94517 133.488878 118.350499 
L 273.004473 282.745323 
z
" style="fill: #4cc9f0"/>
   </g>
   <g id="patch_3">
    <path d="M 137.407594 139.249701 
C 120.546568 153.559019 105.986886 170.377545 94.240174 189.114292 
C 82.493463 207.851038 73.69897 228.283916 68.165677 249.694976 
C 62.632383 271.106036 60.425885 293.241511 61.623742 315.323538 
C 62.821599 337.405567 67.409584 359.172472 75.226499 379.859344 
C 83.043413 400.546217 93.996621 419.907897 107.701202 437.264023 
C 121.405783 454.620148 137.699367 469.765046 156.009334 482.166489 
C 174.319307 494.567931 194.428611 504.07892 215.630779 510.365337 
C 236.832944 516.651753 258.876629 519.639044 280.987193 519.222212 
C 303.097758 518.805392 325.013185 514.989396 345.963351 507.908346 
C 366.913516 500.827295 386.650171 490.565097 404.479715 477.48236 
C 422.30926 464.399622 438.020443 448.651388 451.061129 430.791064 
C 464.101816 412.93074 474.31749 393.169968 481.349152 372.203173 
C 488.380814 351.23638 492.145158 329.312019 492.509877 307.200535 
C 492.874609 285.089049 489.835384 263.052464 483.499038 241.865172 
C 477.162693 220.677879 467.604281 200.590937 455.159721 182.310247 
C 442.715161 164.029556 427.531914 147.771725 410.143543 134.108077 
L 276.923205 303.64451 
z
" style="fill: #4895ef"/>
   </g>
   <g id="patch_4">
    <path d="M 413.464449 113.140655 
C 394.602051 98.318733 373.397582 86.748103 350.726322 78.906346 
C 328.055061 71.06459 304.233289 67.061088 280.24414 67.061088 
L 280.24411 282.677088 
z
" style="fill: #8d99ae"/>
   </g>
   <g id="text_1">
    <!-- Keduanya Benar -->
    <g style="fill: #262626" transform="translate(116.766007 62.684621) scale(0.1 -0.1)">
     <defs>
      <path id="LiberationSans-4b" d="M 3456 0 
L 1697 2125 
L 1122 1688 
L 1122 0 
L 525 0 
L 525 4403 
L 1122 4403 
L 1122 2197 
L 3244 4403 
L 3947 4403 
L 2072 2491 
L 4197 0 
L 3456 0 
z
" transform="scale(0.015625)"/>
      <path id="LiberationSans-65" d="M 863 1572 
Q 863 991 1103 675 
Q 1344 359 1806 359 
Q 2172 359 2392 506 
Q 2613 653 2691 878 
L 3184 738 
Q 2881 -63 1806 -63 
Q 1056 -63 664 384 
Q 272 831 272 1713 
Q 272 2550 664 2997 
Q 1056 3444 1784 3444 
Q 3275 3444 3275 1647 
L 3275 1572 
L 863 1572 
z
M 2694 2003 
Q 2647 2538 2422 2783 
Q 2197 3028 1775 3028 
Q 1366 3028 1127 2754 
Q 888 2481 869 2003 
L 2694 2003 
z
" transform="scale(0.015625)"/>
      <path id="LiberationSans-64" d="M 2566 544 
Q 2409 219 2151 78 
Q 1894 -63 1513 -63 
Q 872 -63 570 368 
Q 269 800 269 1675 
Q 269 3444 1513 3444 
Q 1897 3444 2153 3303 
Q 2409 3163 2566 2856 
L 2572 2856 
L 2566 3234 
L 2566 4638 
L 3128 4638 
L 3128 697 
Q 3128 169 3147 0 
L 2609 0 
Q 2600 50 2589 231 
Q 2578 413 2578 544 
L 2566 544 
z
M 859 1694 
Q 859 984 1046 678 
Q 1234 372 1656 372 
Q 2134 372 2350 703 
Q 2566 1034 2566 1731 
Q 2566 2403 2350 2715 
Q 2134 3028 1663 3028 
Q 1238 3028 1048 2714 
Q 859 2400 859 1694 
z
" transform="scale(0.015625)"/>
      <path id="LiberationSans-75" d="M 981 3381 
L 981 1238 
Q 981 903 1047 718 
Q 1113 534 1256 453 
Q 1400 372 1678 372 
Q 2084 372 2318 650 
Q 2553 928 2553 1422 
L 2553 3381 
L 3116 3381 
L 3116 722 
Q 3116 131 3134 0 
L 2603 0 
Q 2600 16 2597 84 
Q 2594 153 2589 242 
Q 2584 331 2578 578 
L 2569 578 
Q 2375 228 2120 82 
Q 1866 -63 1488 -63 
Q 931 -63 673 214 
Q 416 491 416 1128 
L 416 3381 
L 981 3381 
z
" transform="scale(0.015625)"/>
      <path id="LiberationSans-61" d="M 1294 -63 
Q 784 -63 528 206 
Q 272 475 272 944 
Q 272 1469 617 1750 
Q 963 2031 1731 2050 
L 2491 2063 
L 2491 2247 
Q 2491 2659 2316 2837 
Q 2141 3016 1766 3016 
Q 1388 3016 1216 2887 
Q 1044 2759 1009 2478 
L 422 2531 
Q 566 3444 1778 3444 
Q 2416 3444 2737 3151 
Q 3059 2859 3059 2306 
L 3059 850 
Q 3059 600 3125 473 
Q 3191 347 3375 347 
Q 3456 347 3559 369 
L 3559 19 
Q 3347 -31 3125 -31 
Q 2813 -31 2670 133 
Q 2528 297 2509 647 
L 2491 647 
Q 2275 259 1989 98 
Q 1703 -63 1294 -63 
z
M 1422 359 
Q 1731 359 1972 500 
Q 2213 641 2352 886 
Q 2491 1131 2491 1391 
L 2491 1669 
L 1875 1656 
Q 1478 1650 1273 1575 
Q 1069 1500 959 1344 
Q 850 1188 850 934 
Q 850 659 998 509 
Q 1147 359 1422 359 
z
" transform="scale(0.015625)"/>
      <path id="LiberationSans-6e" d="M 2578 0 
L 2578 2144 
Q 2578 2478 2512 2662 
Q 2447 2847 2303 2928 
Q 2159 3009 1881 3009 
Q 1475 3009 1240 2731 
Q 1006 2453 1006 1959 
L 1006 0 
L 444 0 
L 444 2659 
Q 444 3250 425 3381 
L 956 3381 
Q 959 3366 962 3297 
Q 966 3228 970 3139 
Q 975 3050 981 2803 
L 991 2803 
Q 1184 3153 1439 3298 
Q 1694 3444 2072 3444 
Q 2628 3444 2886 3167 
Q 3144 2891 3144 2253 
L 3144 0 
L 2578 0 
z
" transform="scale(0.015625)"/>
      <path id="LiberationSans-79" d="M 597 -1328 
Q 366 -1328 209 -1294 
L 209 -872 
Q 328 -891 472 -891 
Q 997 -891 1303 -119 
L 1356 16 
L 16 3381 
L 616 3381 
L 1328 1513 
Q 1344 1469 1366 1408 
Q 1388 1347 1506 1000 
Q 1625 653 1634 613 
L 1853 1228 
L 2594 3381 
L 3188 3381 
L 1888 0 
Q 1678 -541 1497 -805 
Q 1316 -1069 1095 -1198 
Q 875 -1328 597 -1328 
z
" transform="scale(0.015625)"/>
      <path id="LiberationSans-20" transform="scale(0.015625)"/>
      <path id="LiberationSans-42" d="M 3931 1241 
Q 3931 653 3503 326 
Q 3075 0 2313 0 
L 525 0 
L 525 4403 
L 2125 4403 
Q 3675 4403 3675 3334 
Q 3675 2944 3456 2678 
Q 3238 2413 2838 2322 
Q 3363 2259 3647 1970 
Q 3931 1681 3931 1241 
z
M 3075 3263 
Q 3075 3619 2831 3772 
Q 2588 3925 2125 3925 
L 1122 3925 
L 1122 2531 
L 2125 2531 
Q 2603 2531 2839 2711 
Q 3075 2891 3075 3263 
z
M 3328 1288 
Q 3328 2066 2234 2066 
L 1122 2066 
L 1122 478 
L 2281 478 
Q 2828 478 3078 681 
Q 3328 884 3328 1288 
z
" transform="scale(0.015625)"/>
      <path id="LiberationSans-72" d="M 444 0 
L 444 2594 
Q 444 2950 425 3381 
L 956 3381 
Q 981 2806 981 2691 
L 994 2691 
Q 1128 3125 1303 3284 
Q 1478 3444 1797 3444 
Q 1909 3444 2025 3413 
L 2025 2897 
Q 1913 2928 1725 2928 
Q 1375 2928 1190 2626 
Q 1006 2325 1006 1763 
L 1006 0 
L 444 0 
z
" transform="scale(0.015625)"/>
     </defs>
     <use xlink:href="#LiberationSans-4b"/>
     <use xlink:href="#LiberationSans-65" transform="translate(66.699219 0)"/>
     <use xlink:href="#LiberationSans-64" transform="translate(122.314453 0)"/>
     <use xlink:href="#LiberationSans-75" transform="translate(177.929688 0)"/>
     <use xlink:href="#LiberationSans-61" transform="translate(233.544922 0)"/>
     <use xlink:href="#LiberationSans-6e" transform="translate(289.160156 0)"/>
     <use xlink:href="#LiberationSans-79" transform="translate(344.775391 0)"/>
     <use xlink:href="#LiberationSans-61" transform="translate(394.775391 0)"/>
     <use xlink:href="#LiberationSans-20" transform="translate(450.390625 0)"/>
     <use xlink:href="#LiberationSans-42" transform="translate(478.173828 0)"/>
     <use xlink:href="#LiberationSans-65" transform="translate(544.873047 0)"/>
     <use xlink:href="#LiberationSans-6e" transform="translate(600.488281 0)"/>
     <use xlink:href="#LiberationSans-61" transform="translate(656.103516 0)"/>
     <use xlink:href="#LiberationSans-72" transform="translate(711.71875 0)"/>
    </g>
   </g>
   <g id="text_2">
    <!-- 11.2% -->
    <g style="fill: #ffffff" transform="translate(214.516588 163.887639) scale(0.1 -0.1)">
     <defs>
      <path id="LiberationSans-Bold-31" d="M 403 0 
L 403 653 
L 1494 653 
L 1494 3656 
L 438 2997 
L 438 3688 
L 1541 4403 
L 2372 4403 
L 2372 653 
L 3381 653 
L 3381 0 
L 403 0 
z
" transform="scale(0.015625)"/>
      <path id="LiberationSans-Bold-2e" d="M 434 0 
L 434 953 
L 1338 953 
L 1338 0 
L 434 0 
z
" transform="scale(0.015625)"/>
      <path id="LiberationSans-Bold-32" d="M 222 0 
L 222 609 
Q 394 988 711 1347 
Q 1028 1706 1509 2097 
Q 1972 2472 2158 2715 
Q 2344 2959 2344 3194 
Q 2344 3769 1766 3769 
Q 1484 3769 1336 3617 
Q 1188 3466 1144 3163 
L 259 3213 
Q 334 3825 717 4147 
Q 1100 4469 1759 4469 
Q 2472 4469 2853 4144 
Q 3234 3819 3234 3231 
Q 3234 2922 3112 2672 
Q 2991 2422 2800 2211 
Q 2609 2000 2376 1815 
Q 2144 1631 1925 1456 
Q 1706 1281 1526 1103 
Q 1347 925 1259 722 
L 3303 722 
L 3303 0 
L 222 0 
z
" transform="scale(0.015625)"/>
      <path id="LiberationSans-Bold-25" d="M 5522 1350 
Q 5522 669 5240 309 
Q 4959 -50 4416 -50 
Q 3866 -50 3587 306 
Q 3309 663 3309 1350 
Q 3309 2050 3578 2401 
Q 3847 2753 4428 2753 
Q 4991 2753 5256 2398 
Q 5522 2044 5522 1350 
z
M 1725 0 
L 1081 0 
L 3956 4403 
L 4609 4403 
L 1725 0 
z
M 1275 4453 
Q 1834 4453 2104 4100 
Q 2375 3747 2375 3053 
Q 2375 2372 2092 2011 
Q 1809 1650 1259 1650 
Q 716 1650 437 2008 
Q 159 2366 159 3053 
Q 159 3763 428 4108 
Q 697 4453 1275 4453 
z
M 4850 1350 
Q 4850 1847 4754 2059 
Q 4659 2272 4428 2272 
Q 4178 2272 4083 2056 
Q 3988 1841 3988 1350 
Q 3988 850 4088 645 
Q 4188 441 4422 441 
Q 4650 441 4750 653 
Q 4850 866 4850 1350 
z
M 1697 3053 
Q 1697 3544 1601 3756 
Q 1506 3969 1275 3969 
Q 1025 3969 928 3758 
Q 831 3547 831 3053 
Q 831 2559 932 2348 
Q 1034 2138 1269 2138 
Q 1500 2138 1598 2350 
Q 1697 2563 1697 3053 
z
" transform="scale(0.015625)"/>
     </defs>
     <use xlink:href="#LiberationSans-Bold-31"/>
     <use xlink:href="#LiberationSans-Bold-31" transform="translate(50.115234 0)"/>
     <use xlink:href="#LiberationSans-Bold-2e" transform="translate(105.730469 0)"/>
     <use xlink:href="#LiberationSans-Bold-32" transform="translate(133.513672 0)"/>
     <use xlink:href="#LiberationSans-Bold-25" transform="translate(189.128906 0)"/>
    </g>
   </g>
   <g id="text_3">
    <!-- Hanya RAG Benar -->
    <g style="fill: #262626" transform="translate(281.393705 543.365912) scale(0.1 -0.1)">
     <defs>
      <path id="LiberationSans-48" d="M 3503 0 
L 3503 2041 
L 1122 2041 
L 1122 0 
L 525 0 
L 525 4403 
L 1122 4403 
L 1122 2541 
L 3503 2541 
L 3503 4403 
L 4100 4403 
L 4100 0 
L 3503 0 
z
" transform="scale(0.015625)"/>
      <path id="LiberationSans-52" d="M 3638 0 
L 2494 1828 
L 1122 1828 
L 1122 0 
L 525 0 
L 525 4403 
L 2597 4403 
Q 3341 4403 3745 4070 
Q 4150 3738 4150 3144 
Q 4150 2653 3864 2318 
Q 3578 1984 3075 1897 
L 4325 0 
L 3638 0 
z
M 3550 3138 
Q 3550 3522 3289 3723 
Q 3028 3925 2538 3925 
L 1122 3925 
L 1122 2300 
L 2563 2300 
Q 3034 2300 3292 2520 
Q 3550 2741 3550 3138 
z
" transform="scale(0.015625)"/>
      <path id="LiberationSans-41" d="M 3647 0 
L 3144 1288 
L 1138 1288 
L 631 0 
L 13 0 
L 1809 4403 
L 2488 4403 
L 4256 0 
L 3647 0 
z
M 2141 3953 
L 2113 3866 
Q 2034 3606 1881 3200 
L 1319 1753 
L 2966 1753 
L 2400 3206 
Q 2313 3422 2225 3694 
L 2141 3953 
z
" transform="scale(0.015625)"/>
      <path id="LiberationSans-47" d="M 322 2222 
Q 322 3294 897 3881 
Q 1472 4469 2513 4469 
Q 3244 4469 3700 4222 
Q 4156 3975 4403 3431 
L 3834 3263 
Q 3647 3638 3317 3809 
Q 2988 3981 2497 3981 
Q 1734 3981 1331 3520 
Q 928 3059 928 2222 
Q 928 1388 1356 905 
Q 1784 422 2541 422 
Q 2972 422 3345 553 
Q 3719 684 3950 909 
L 3950 1703 
L 2634 1703 
L 2634 2203 
L 4500 2203 
L 4500 684 
Q 4150 328 3642 132 
Q 3134 -63 2541 -63 
Q 1850 -63 1350 212 
Q 850 488 586 1005 
Q 322 1522 322 2222 
z
" transform="scale(0.015625)"/>
     </defs>
     <use xlink:href="#LiberationSans-48"/>
     <use xlink:href="#LiberationSans-61" transform="translate(72.216797 0)"/>
     <use xlink:href="#LiberationSans-6e" transform="translate(127.832031 0)"/>
     <use xlink:href="#LiberationSans-79" transform="translate(183.447266 0)"/>
     <use xlink:href="#LiberationSans-61" transform="translate(233.447266 0)"/>
     <use xlink:href="#LiberationSans-20" transform="translate(289.0625 0)"/>
     <use xlink:href="#LiberationSans-52" transform="translate(316.845703 0)"/>
     <use xlink:href="#LiberationSans-41" transform="translate(389.0625 0)"/>
     <use xlink:href="#LiberationSans-47" transform="translate(455.761719 0)"/>
     <use xlink:href="#LiberationSans-20" transform="translate(533.544922 0)"/>
     <use xlink:href="#LiberationSans-42" transform="translate(561.328125 0)"/>
     <use xlink:href="#LiberationSans-65" transform="translate(628.027344 0)"/>
     <use xlink:href="#LiberationSans-6e" transform="translate(683.642578 0)"/>
     <use xlink:href="#LiberationSans-61" transform="translate(739.257812 0)"/>
     <use xlink:href="#LiberationSans-72" transform="translate(794.873047 0)"/>
    </g>
   </g>
   <g id="text_4">
    <!-- 78.2% -->
    <g style="fill: #ffffff" transform="translate(265.185097 435.577064) scale(0.1 -0.1)">
     <defs>
      <path id="LiberationSans-Bold-37" d="M 3278 3706 
Q 2981 3238 2717 2797 
Q 2453 2356 2256 1911 
Q 2059 1466 1945 995 
Q 1831 525 1831 0 
L 916 0 
Q 916 550 1059 1064 
Q 1203 1578 1475 2111 
Q 1747 2644 2463 3681 
L 275 3681 
L 275 4403 
L 3278 4403 
L 3278 3706 
z
" transform="scale(0.015625)"/>
      <path id="LiberationSans-Bold-38" d="M 3363 1241 
Q 3363 622 2953 279 
Q 2544 -63 1784 -63 
Q 1031 -63 617 278 
Q 203 619 203 1234 
Q 203 1656 447 1945 
Q 691 2234 1100 2303 
L 1100 2316 
Q 744 2394 525 2669 
Q 306 2944 306 3303 
Q 306 3844 689 4156 
Q 1072 4469 1772 4469 
Q 2488 4469 2870 4164 
Q 3253 3859 3253 3297 
Q 3253 2938 3036 2666 
Q 2819 2394 2453 2322 
L 2453 2309 
Q 2878 2241 3120 1961 
Q 3363 1681 3363 1241 
z
M 2350 3250 
Q 2350 3563 2206 3708 
Q 2063 3853 1772 3853 
Q 1203 3853 1203 3250 
Q 1203 2619 1778 2619 
Q 2066 2619 2208 2766 
Q 2350 2913 2350 3250 
z
M 2453 1313 
Q 2453 2003 1766 2003 
Q 1447 2003 1276 1822 
Q 1106 1641 1106 1300 
Q 1106 913 1275 734 
Q 1444 556 1791 556 
Q 2131 556 2292 734 
Q 2453 913 2453 1313 
z
" transform="scale(0.015625)"/>
     </defs>
     <use xlink:href="#LiberationSans-Bold-37"/>
     <use xlink:href="#LiberationSans-Bold-38" transform="translate(55.615234 0)"/>
     <use xlink:href="#LiberationSans-Bold-2e" transform="translate(111.230469 0)"/>
     <use xlink:href="#LiberationSans-Bold-32" transform="translate(139.013672 0)"/>
     <use xlink:href="#LiberationSans-Bold-25" transform="translate(194.628906 0)"/>
    </g>
   </g>
   <g id="text_5">
    <!-- Keduanya Salah -->
    <g style="fill: #262626" transform="translate(357.774541 61.115203) scale(0.1 -0.1)">
     <defs>
      <path id="LiberationSans-53" d="M 3975 1216 
Q 3975 606 3498 271 
Q 3022 -63 2156 -63 
Q 547 -63 291 1056 
L 869 1172 
Q 969 775 1294 589 
Q 1619 403 2178 403 
Q 2756 403 3070 601 
Q 3384 800 3384 1184 
Q 3384 1400 3286 1534 
Q 3188 1669 3009 1756 
Q 2831 1844 2584 1903 
Q 2338 1963 2038 2031 
Q 1516 2147 1245 2262 
Q 975 2378 819 2520 
Q 663 2663 580 2853 
Q 497 3044 497 3291 
Q 497 3856 930 4162 
Q 1363 4469 2169 4469 
Q 2919 4469 3316 4239 
Q 3713 4009 3872 3456 
L 3284 3353 
Q 3188 3703 2916 3861 
Q 2644 4019 2163 4019 
Q 1634 4019 1356 3844 
Q 1078 3669 1078 3322 
Q 1078 3119 1186 2986 
Q 1294 2853 1497 2761 
Q 1700 2669 2306 2534 
Q 2509 2488 2711 2439 
Q 2913 2391 3097 2323 
Q 3281 2256 3442 2165 
Q 3603 2075 3722 1944 
Q 3841 1813 3908 1634 
Q 3975 1456 3975 1216 
z
" transform="scale(0.015625)"/>
      <path id="LiberationSans-6c" d="M 431 0 
L 431 4638 
L 994 4638 
L 994 0 
L 431 0 
z
" transform="scale(0.015625)"/>
      <path id="LiberationSans-68" d="M 991 2803 
Q 1172 3134 1426 3289 
Q 1681 3444 2072 3444 
Q 2622 3444 2883 3170 
Q 3144 2897 3144 2253 
L 3144 0 
L 2578 0 
L 2578 2144 
Q 2578 2500 2512 2673 
Q 2447 2847 2297 2928 
Q 2147 3009 1881 3009 
Q 1484 3009 1245 2734 
Q 1006 2459 1006 1994 
L 1006 0 
L 444 0 
L 444 4638 
L 1006 4638 
L 1006 3431 
Q 1006 3241 995 3037 
Q 984 2834 981 2803 
L 991 2803 
z
" transform="scale(0.015625)"/>
     </defs>
     <use xlink:href="#LiberationSans-4b"/>
     <use xlink:href="#LiberationSans-65" transform="translate(66.699219 0)"/>
     <use xlink:href="#LiberationSans-64" transform="translate(122.314453 0)"/>
     <use xlink:href="#LiberationSans-75" transform="translate(177.929688 0)"/>
     <use xlink:href="#LiberationSans-61" transform="translate(233.544922 0)"/>
     <use xlink:href="#LiberationSans-6e" transform="translate(289.160156 0)"/>
     <use xlink:href="#LiberationSans-79" transform="translate(344.775391 0)"/>
     <use xlink:href="#LiberationSans-61" transform="translate(394.775391 0)"/>
     <use xlink:href="#LiberationSans-20" transform="translate(450.390625 0)"/>
     <use xlink:href="#LiberationSans-53" transform="translate(478.173828 0)"/>
     <use xlink:href="#LiberationSans-61" transform="translate(544.873047 0)"/>
     <use xlink:href="#LiberationSans-6c" transform="translate(600.488281 0)"/>
     <use xlink:href="#LiberationSans-61" transform="translate(622.705078 0)"/>
     <use xlink:href="#LiberationSans-68" transform="translate(678.320312 0)"/>
    </g>
   </g>
   <g id="text_6">
    <!-- 10.6% -->
    <g style="fill: #ffffff" transform="translate(308.356874 163.000576) scale(0.1 -0.1)">
     <defs>
      <path id="LiberationSans-Bold-30" d="M 3297 2203 
Q 3297 1088 2914 512 
Q 2531 -63 1766 -63 
Q 253 -63 253 2203 
Q 253 2994 418 3494 
Q 584 3994 915 4231 
Q 1247 4469 1791 4469 
Q 2572 4469 2934 3903 
Q 3297 3338 3297 2203 
z
M 2416 2203 
Q 2416 2813 2356 3150 
Q 2297 3488 2165 3634 
Q 2034 3781 1784 3781 
Q 1519 3781 1383 3632 
Q 1247 3484 1189 3148 
Q 1131 2813 1131 2203 
Q 1131 1600 1192 1261 
Q 1253 922 1386 775 
Q 1519 628 1772 628 
Q 2022 628 2158 783 
Q 2294 938 2355 1278 
Q 2416 1619 2416 2203 
z
" transform="scale(0.015625)"/>
      <path id="LiberationSans-Bold-36" d="M 3328 1441 
Q 3328 738 2934 337 
Q 2541 -63 1847 -63 
Q 1069 -63 651 482 
Q 234 1028 234 2100 
Q 234 3278 657 3873 
Q 1081 4469 1869 4469 
Q 2428 4469 2751 4222 
Q 3075 3975 3209 3456 
L 2381 3341 
Q 2263 3775 1850 3775 
Q 1497 3775 1295 3422 
Q 1094 3069 1094 2350 
Q 1234 2584 1484 2709 
Q 1734 2834 2050 2834 
Q 2641 2834 2984 2459 
Q 3328 2084 3328 1441 
z
M 2447 1416 
Q 2447 1791 2273 1989 
Q 2100 2188 1797 2188 
Q 1506 2188 1331 2002 
Q 1156 1816 1156 1509 
Q 1156 1125 1339 873 
Q 1522 622 1819 622 
Q 2116 622 2281 833 
Q 2447 1044 2447 1416 
z
" transform="scale(0.015625)"/>
     </defs>
     <use xlink:href="#LiberationSans-Bold-31"/>
     <use xlink:href="#LiberationSans-Bold-30" transform="translate(55.615234 0)"/>
     <use xlink:href="#LiberationSans-Bold-2e" transform="translate(111.230469 0)"/>
     <use xlink:href="#LiberationSans-Bold-36" transform="translate(139.013672 0)"/>
     <use xlink:href="#LiberationSans-Bold-25" transform="translate(194.628906 0)"/>
    </g>
   </g>
   <g id="text_7">
    <!-- ðŸ© Distribusi Kategori Jawaban - Gabungan Semua File -->
    <g style="fill: #262626" transform="translate(95.668281 17.345625) scale(0.14 -0.14)">
     <defs>
      <path id="LiberationSans-Bold-1f369" d="M 641 4403 
L 4156 4403 
L 4156 0 
L 641 0 
L 641 4403 
z
M 878 4166 
L 878 238 
L 3919 238 
L 3919 4166 
L 878 4166 
z
" transform="scale(0.015625)"/>
      <path id="LiberationSans-Bold-20" transform="scale(0.015625)"/>
      <path id="LiberationSans-Bold-44" d="M 4353 2234 
Q 4353 1553 4086 1045 
Q 3819 538 3330 269 
Q 2841 0 2209 0 
L 428 0 
L 428 4403 
L 2022 4403 
Q 3134 4403 3743 3842 
Q 4353 3281 4353 2234 
z
M 3425 2234 
Q 3425 2944 3056 3317 
Q 2688 3691 2003 3691 
L 1350 3691 
L 1350 713 
L 2131 713 
Q 2725 713 3075 1122 
Q 3425 1531 3425 2234 
z
" transform="scale(0.015625)"/>
      <path id="LiberationSans-Bold-69" d="M 447 3991 
L 447 4638 
L 1325 4638 
L 1325 3991 
L 447 3991 
z
M 447 0 
L 447 3381 
L 1325 3381 
L 1325 0 
L 447 0 
z
" transform="scale(0.015625)"/>
      <path id="LiberationSans-Bold-73" d="M 3297 988 
Q 3297 497 2895 217 
Q 2494 -63 1784 -63 
Q 1088 -63 717 157 
Q 347 378 225 844 
L 997 959 
Q 1063 719 1223 619 
Q 1384 519 1784 519 
Q 2153 519 2322 612 
Q 2491 706 2491 906 
Q 2491 1069 2355 1164 
Q 2219 1259 1894 1325 
Q 1150 1472 890 1598 
Q 631 1725 495 1926 
Q 359 2128 359 2422 
Q 359 2906 732 3176 
Q 1106 3447 1791 3447 
Q 2394 3447 2761 3212 
Q 3128 2978 3219 2534 
L 2441 2453 
Q 2403 2659 2256 2761 
Q 2109 2863 1791 2863 
Q 1478 2863 1322 2783 
Q 1166 2703 1166 2516 
Q 1166 2369 1286 2283 
Q 1406 2197 1691 2141 
Q 2088 2059 2395 1973 
Q 2703 1888 2889 1769 
Q 3075 1650 3186 1464 
Q 3297 1278 3297 988 
z
" transform="scale(0.015625)"/>
      <path id="LiberationSans-Bold-74" d="M 1313 -56 
Q 925 -56 715 155 
Q 506 366 506 794 
L 506 2788 
L 78 2788 
L 78 3381 
L 550 3381 
L 825 4175 
L 1375 4175 
L 1375 3381 
L 2016 3381 
L 2016 2788 
L 1375 2788 
L 1375 1031 
Q 1375 784 1469 667 
Q 1563 550 1759 550 
Q 1863 550 2053 594 
L 2053 50 
Q 1728 -56 1313 -56 
z
" transform="scale(0.015625)"/>
      <path id="LiberationSans-Bold-72" d="M 447 0 
L 447 2588 
Q 447 2866 439 3052 
Q 431 3238 422 3381 
L 1259 3381 
Q 1269 3325 1284 3039 
Q 1300 2753 1300 2659 
L 1313 2659 
Q 1441 3016 1541 3161 
Q 1641 3306 1778 3376 
Q 1916 3447 2122 3447 
Q 2291 3447 2394 3400 
L 2394 2666 
Q 2181 2713 2019 2713 
Q 1691 2713 1508 2447 
Q 1325 2181 1325 1659 
L 1325 0 
L 447 0 
z
" transform="scale(0.015625)"/>
      <path id="LiberationSans-Bold-62" d="M 3647 1703 
Q 3647 866 3311 401 
Q 2975 -63 2350 -63 
Q 1991 -63 1728 93 
Q 1466 250 1325 544 
L 1319 544 
Q 1319 434 1305 243 
Q 1291 53 1275 0 
L 422 0 
Q 447 291 447 772 
L 447 4638 
L 1325 4638 
L 1325 3344 
L 1313 2794 
L 1325 2794 
Q 1622 3444 2406 3444 
Q 3006 3444 3326 2989 
Q 3647 2534 3647 1703 
z
M 2731 1703 
Q 2731 2278 2562 2556 
Q 2394 2834 2041 2834 
Q 1684 2834 1498 2536 
Q 1313 2238 1313 1675 
Q 1313 1138 1495 838 
Q 1678 538 2034 538 
Q 2731 538 2731 1703 
z
" transform="scale(0.015625)"/>
      <path id="LiberationSans-Bold-75" d="M 1275 3381 
L 1275 1484 
Q 1275 594 1875 594 
Q 2194 594 2389 867 
Q 2584 1141 2584 1569 
L 2584 3381 
L 3463 3381 
L 3463 756 
Q 3463 325 3488 0 
L 2650 0 
Q 2613 450 2613 672 
L 2597 672 
Q 2422 288 2151 112 
Q 1881 -63 1509 -63 
Q 972 -63 684 267 
Q 397 597 397 1234 
L 397 3381 
L 1275 3381 
z
" transform="scale(0.015625)"/>
      <path id="LiberationSans-Bold-4b" d="M 3475 0 
L 1894 2022 
L 1350 1606 
L 1350 0 
L 428 0 
L 428 4403 
L 1350 4403 
L 1350 2406 
L 3334 4403 
L 4409 4403 
L 2528 2541 
L 4563 0 
L 3475 0 
z
" transform="scale(0.015625)"/>
      <path id="LiberationSans-Bold-61" d="M 1228 -63 
Q 738 -63 463 204 
Q 188 472 188 956 
Q 188 1481 530 1756 
Q 872 2031 1522 2038 
L 2250 2050 
L 2250 2222 
Q 2250 2553 2134 2714 
Q 2019 2875 1756 2875 
Q 1513 2875 1398 2764 
Q 1284 2653 1256 2397 
L 341 2441 
Q 425 2934 792 3189 
Q 1159 3444 1794 3444 
Q 2434 3444 2781 3128 
Q 3128 2813 3128 2231 
L 3128 1000 
Q 3128 716 3192 608 
Q 3256 500 3406 500 
Q 3506 500 3600 519 
L 3600 44 
Q 3522 25 3459 9 
Q 3397 -6 3334 -15 
Q 3272 -25 3201 -31 
Q 3131 -38 3038 -38 
Q 2706 -38 2548 125 
Q 2391 288 2359 603 
L 2341 603 
Q 1972 -63 1228 -63 
z
M 2250 1566 
L 1800 1559 
Q 1494 1547 1366 1492 
Q 1238 1438 1170 1325 
Q 1103 1213 1103 1025 
Q 1103 784 1214 667 
Q 1325 550 1509 550 
Q 1716 550 1886 662 
Q 2056 775 2153 973 
Q 2250 1172 2250 1394 
L 2250 1566 
z
" transform="scale(0.015625)"/>
      <path id="LiberationSans-Bold-65" d="M 1831 -63 
Q 1069 -63 659 389 
Q 250 841 250 1706 
Q 250 2544 665 2994 
Q 1081 3444 1844 3444 
Q 2572 3444 2956 2961 
Q 3341 2478 3341 1547 
L 3341 1522 
L 1172 1522 
Q 1172 1028 1355 776 
Q 1538 525 1875 525 
Q 2341 525 2463 928 
L 3291 856 
Q 2931 -63 1831 -63 
z
M 1831 2891 
Q 1522 2891 1355 2675 
Q 1188 2459 1178 2072 
L 2491 2072 
Q 2466 2481 2294 2686 
Q 2122 2891 1831 2891 
z
" transform="scale(0.015625)"/>
      <path id="LiberationSans-Bold-67" d="M 1863 -1356 
Q 1244 -1356 867 -1120 
Q 491 -884 403 -447 
L 1281 -344 
Q 1328 -547 1483 -662 
Q 1638 -778 1888 -778 
Q 2253 -778 2422 -553 
Q 2591 -328 2591 116 
L 2591 294 
L 2597 628 
L 2591 628 
Q 2300 6 1503 6 
Q 913 6 588 450 
Q 263 894 263 1719 
Q 263 2547 597 2997 
Q 931 3447 1569 3447 
Q 2306 3447 2591 2838 
L 2606 2838 
Q 2606 2947 2620 3134 
Q 2634 3322 2650 3381 
L 3481 3381 
Q 3463 3044 3463 2600 
L 3463 103 
Q 3463 -619 3053 -987 
Q 2644 -1356 1863 -1356 
z
M 2597 1738 
Q 2597 2259 2411 2551 
Q 2225 2844 1881 2844 
Q 1178 2844 1178 1719 
Q 1178 616 1875 616 
Q 2225 616 2411 908 
Q 2597 1200 2597 1738 
z
" transform="scale(0.015625)"/>
      <path id="LiberationSans-Bold-6f" d="M 3659 1694 
Q 3659 872 3203 404 
Q 2747 -63 1941 -63 
Q 1150 -63 700 406 
Q 250 875 250 1694 
Q 250 2509 700 2976 
Q 1150 3444 1959 3444 
Q 2788 3444 3223 2992 
Q 3659 2541 3659 1694 
z
M 2741 1694 
Q 2741 2297 2544 2569 
Q 2347 2841 1972 2841 
Q 1172 2841 1172 1694 
Q 1172 1128 1367 833 
Q 1563 538 1931 538 
Q 2741 538 2741 1694 
z
" transform="scale(0.015625)"/>
      <path id="LiberationSans-Bold-4a" d="M 1638 -63 
Q 953 -63 586 234 
Q 219 531 97 1194 
L 1013 1328 
Q 1069 988 1222 823 
Q 1375 659 1644 659 
Q 1919 659 2061 843 
Q 2203 1028 2203 1372 
L 2203 3681 
L 1325 3681 
L 1325 4403 
L 3122 4403 
L 3122 1394 
Q 3122 706 2731 321 
Q 2341 -63 1638 -63 
z
" transform="scale(0.015625)"/>
      <path id="LiberationSans-Bold-77" d="M 4103 0 
L 3175 0 
L 2638 2063 
Q 2600 2203 2491 2756 
L 2328 2056 
L 1784 0 
L 856 0 
L -19 3381 
L 806 3381 
L 1363 797 
L 1406 1028 
L 1484 1394 
L 2016 3381 
L 2956 3381 
L 3475 1394 
Q 3519 1231 3603 797 
L 3691 1209 
L 4178 3381 
L 4991 3381 
L 4103 0 
z
" transform="scale(0.015625)"/>
      <path id="LiberationSans-Bold-6e" d="M 2638 0 
L 2638 1897 
Q 2638 2788 2034 2788 
Q 1716 2788 1520 2514 
Q 1325 2241 1325 1813 
L 1325 0 
L 447 0 
L 447 2625 
Q 447 2897 439 3070 
Q 431 3244 422 3381 
L 1259 3381 
Q 1269 3322 1284 3064 
Q 1300 2806 1300 2709 
L 1313 2709 
Q 1491 3097 1759 3272 
Q 2028 3447 2400 3447 
Q 2938 3447 3225 3115 
Q 3513 2784 3513 2147 
L 3513 0 
L 2638 0 
z
" transform="scale(0.015625)"/>
      <path id="LiberationSans-Bold-2d" d="M 250 1278 
L 250 2041 
L 1875 2041 
L 1875 1278 
L 250 1278 
z
" transform="scale(0.015625)"/>
      <path id="LiberationSans-Bold-47" d="M 2519 659 
Q 2878 659 3215 764 
Q 3553 869 3738 1031 
L 3738 1641 
L 2663 1641 
L 2663 2322 
L 4581 2322 
L 4581 703 
Q 4231 344 3670 140 
Q 3109 -63 2494 -63 
Q 1419 -63 841 532 
Q 263 1128 263 2222 
Q 263 3309 844 3889 
Q 1425 4469 2516 4469 
Q 4066 4469 4488 3322 
L 3638 3066 
Q 3500 3400 3206 3572 
Q 2913 3744 2516 3744 
Q 1866 3744 1528 3350 
Q 1191 2956 1191 2222 
Q 1191 1475 1539 1067 
Q 1888 659 2519 659 
z
" transform="scale(0.015625)"/>
      <path id="LiberationSans-Bold-53" d="M 4019 1269 
Q 4019 622 3539 279 
Q 3059 -63 2131 -63 
Q 1284 -63 803 237 
Q 322 538 184 1147 
L 1075 1294 
Q 1166 944 1428 786 
Q 1691 628 2156 628 
Q 3122 628 3122 1216 
Q 3122 1403 3011 1525 
Q 2900 1647 2698 1728 
Q 2497 1809 1925 1925 
Q 1431 2041 1237 2111 
Q 1044 2181 887 2276 
Q 731 2372 622 2506 
Q 513 2641 452 2822 
Q 391 3003 391 3238 
Q 391 3834 839 4151 
Q 1288 4469 2144 4469 
Q 2963 4469 3373 4212 
Q 3784 3956 3903 3366 
L 3009 3244 
Q 2941 3528 2730 3672 
Q 2519 3816 2125 3816 
Q 1288 3816 1288 3291 
Q 1288 3119 1377 3009 
Q 1466 2900 1641 2823 
Q 1816 2747 2350 2631 
Q 2984 2497 3257 2383 
Q 3531 2269 3690 2117 
Q 3850 1966 3934 1755 
Q 4019 1544 4019 1269 
z
" transform="scale(0.015625)"/>
      <path id="LiberationSans-Bold-6d" d="M 2438 0 
L 2438 1897 
Q 2438 2788 1925 2788 
Q 1659 2788 1492 2516 
Q 1325 2244 1325 1813 
L 1325 0 
L 447 0 
L 447 2625 
Q 447 2897 439 3070 
Q 431 3244 422 3381 
L 1259 3381 
Q 1269 3322 1284 3064 
Q 1300 2806 1300 2709 
L 1313 2709 
Q 1475 3097 1717 3272 
Q 1959 3447 2297 3447 
Q 3072 3447 3238 2709 
L 3256 2709 
Q 3428 3103 3668 3275 
Q 3909 3447 4281 3447 
Q 4775 3447 5034 3111 
Q 5294 2775 5294 2147 
L 5294 0 
L 4422 0 
L 4422 1897 
Q 4422 2788 3909 2788 
Q 3653 2788 3489 2539 
Q 3325 2291 3309 1853 
L 3309 0 
L 2438 0 
z
" transform="scale(0.015625)"/>
      <path id="LiberationSans-Bold-46" d="M 1350 3691 
L 1350 2328 
L 3603 2328 
L 3603 1616 
L 1350 1616 
L 1350 0 
L 428 0 
L 428 4403 
L 3675 4403 
L 3675 3691 
L 1350 3691 
z
" transform="scale(0.015625)"/>
      <path id="LiberationSans-Bold-6c" d="M 447 0 
L 447 4638 
L 1325 4638 
L 1325 0 
L 447 0 
z
" transform="scale(0.015625)"/>
     </defs>
     <use xlink:href="#LiberationSans-Bold-1f369"/>
     <use xlink:href="#LiberationSans-Bold-20" transform="translate(75 0)"/>
     <use xlink:href="#LiberationSans-Bold-44" transform="translate(102.783203 0)"/>
     <use xlink:href="#LiberationSans-Bold-69" transform="translate(175 0)"/>
     <use xlink:href="#LiberationSans-Bold-73" transform="translate(202.783203 0)"/>
     <use xlink:href="#LiberationSans-Bold-74" transform="translate(258.398438 0)"/>
     <use xlink:href="#LiberationSans-Bold-72" transform="translate(291.699219 0)"/>
     <use xlink:href="#LiberationSans-Bold-69" transform="translate(330.615234 0)"/>
     <use xlink:href="#LiberationSans-Bold-62" transform="translate(358.398438 0)"/>
     <use xlink:href="#LiberationSans-Bold-75" transform="translate(419.482422 0)"/>
     <use xlink:href="#LiberationSans-Bold-73" transform="translate(480.566406 0)"/>
     <use xlink:href="#LiberationSans-Bold-69" transform="translate(536.181641 0)"/>
     <use xlink:href="#LiberationSans-Bold-20" transform="translate(563.964844 0)"/>
     <use xlink:href="#LiberationSans-Bold-4b" transform="translate(591.748047 0)"/>
     <use xlink:href="#LiberationSans-Bold-61" transform="translate(663.964844 0)"/>
     <use xlink:href="#LiberationSans-Bold-74" transform="translate(719.580078 0)"/>
     <use xlink:href="#LiberationSans-Bold-65" transform="translate(752.880859 0)"/>
     <use xlink:href="#LiberationSans-Bold-67" transform="translate(808.496094 0)"/>
     <use xlink:href="#LiberationSans-Bold-6f" transform="translate(869.580078 0)"/>
     <use xlink:href="#LiberationSans-Bold-72" transform="translate(930.664062 0)"/>
     <use xlink:href="#LiberationSans-Bold-69" transform="translate(969.580078 0)"/>
     <use xlink:href="#LiberationSans-Bold-20" transform="translate(997.363281 0)"/>
     <use xlink:href="#LiberationSans-Bold-4a" transform="translate(1025.146484 0)"/>
     <use xlink:href="#LiberationSans-Bold-61" transform="translate(1080.761719 0)"/>
     <use xlink:href="#LiberationSans-Bold-77" transform="translate(1136.376953 0)"/>
     <use xlink:href="#LiberationSans-Bold-61" transform="translate(1214.160156 0)"/>
     <use xlink:href="#LiberationSans-Bold-62" transform="translate(1269.775391 0)"/>
     <use xlink:href="#LiberationSans-Bold-61" transform="translate(1330.859375 0)"/>
     <use xlink:href="#LiberationSans-Bold-6e" transform="translate(1386.474609 0)"/>
     <use xlink:href="#LiberationSans-Bold-20" transform="translate(1447.558594 0)"/>
     <use xlink:href="#LiberationSans-Bold-2d" transform="translate(1475.341797 0)"/>
     <use xlink:href="#LiberationSans-Bold-20" transform="translate(1508.642578 0)"/>
     <use xlink:href="#LiberationSans-Bold-47" transform="translate(1536.425781 0)"/>
     <use xlink:href="#LiberationSans-Bold-61" transform="translate(1614.208984 0)"/>
     <use xlink:href="#LiberationSans-Bold-62" transform="translate(1669.824219 0)"/>
     <use xlink:href="#LiberationSans-Bold-75" transform="translate(1730.908203 0)"/>
     <use xlink:href="#LiberationSans-Bold-6e" transform="translate(1791.992188 0)"/>
     <use xlink:href="#LiberationSans-Bold-67" transform="translate(1853.076172 0)"/>
     <use xlink:href="#LiberationSans-Bold-61" transform="translate(1914.160156 0)"/>
     <use xlink:href="#LiberationSans-Bold-6e" transform="translate(1969.775391 0)"/>
     <use xlink:href="#LiberationSans-Bold-20" transform="translate(2030.859375 0)"/>
     <use xlink:href="#LiberationSans-Bold-53" transform="translate(2058.642578 0)"/>
     <use xlink:href="#LiberationSans-Bold-65" transform="translate(2125.341797 0)"/>
     <use xlink:href="#LiberationSans-Bold-6d" transform="translate(2180.957031 0)"/>
     <use xlink:href="#LiberationSans-Bold-75" transform="translate(2269.873047 0)"/>
     <use xlink:href="#LiberationSans-Bold-61" transform="translate(2330.957031 0)"/>
     <use xlink:href="#LiberationSans-Bold-20" transform="translate(2386.572266 0)"/>
     <use xlink:href="#LiberationSans-Bold-46" transform="translate(2414.355469 0)"/>
     <use xlink:href="#LiberationSans-Bold-69" transform="translate(2475.439453 0)"/>
     <use xlink:href="#LiberationSans-Bold-6c" transform="translate(2503.222656 0)"/>
     <use xlink:href="#LiberationSans-Bold-65" transform="translate(2531.005859 0)"/>
    </g>
   </g>
  </g>
 </g>
</svg>
