<?xml version="1.0" encoding="utf-8" standalone="no"?>
<!DOCTYPE svg PUBLIC "-//W3C//DTD SVG 1.1//EN"
  "http://www.w3.org/Graphics/SVG/1.1/DTD/svg11.dtd">
<svg xmlns:xlink="http://www.w3.org/1999/xlink" width="856.845937pt" height="568.382868pt" viewBox="0 0 856.845937 568.382868" xmlns="http://www.w3.org/2000/svg" version="1.1">
 <metadata>
  <rdf:RDF xmlns:dc="http://purl.org/dc/elements/1.1/" xmlns:cc="http://creativecommons.org/ns#" xmlns:rdf="http://www.w3.org/1999/02/22-rdf-syntax-ns#">
   <cc:Work>
    <dc:type rdf:resource="http://purl.org/dc/dcmitype/StillImage"/>
    <dc:date>2025-08-06T17:34:26.934124</dc:date>
    <dc:format>image/svg+xml</dc:format>
    <dc:creator>
     <cc:Agent>
      <dc:title>Matplotlib v3.10.5, https://matplotlib.org/</dc:title>
     </cc:Agent>
    </dc:creator>
   </cc:Work>
  </rdf:RDF>
 </metadata>
 <defs>
  <style type="text/css">*{stroke-linejoin: round; stroke-linecap: butt}</style>
 </defs>
 <g id="figure_1">
  <g id="patch_1">
   <path d="M 0 568.382868 
L 856.845937 568.382868 
L 856.845937 0 
L 0 0 
z
" style="fill: #ffffff"/>
  </g>
  <g id="axes_1">
   <g id="patch_2">
    <path d="M 39.575938 479.482224 
L 849.645938 479.482224 
L 849.645938 21.89625 
L 39.575938 21.89625 
z
" style="fill: #eaeaf2"/>
   </g>
   <g id="matplotlib.axis_1">
    <g id="xtick_1">
     <g id="line2d_1">
      <path d="M 104.721427 479.482224 
L 104.721427 21.89625 
" clip-path="url(#p2a4cc1f8a1)" style="fill: none; stroke: #ffffff; stroke-opacity: 0.3; stroke-linecap: round"/>
     </g>
     <g id="line2d_2"/>
     <g id="text_1">
      <!-- RagEvaluation1 -->
      <g style="fill: #262626" transform="translate(81.588539 541.529382) rotate(-45) scale(0.1 -0.1)">
       <defs>
        <path id="LiberationSans-52" d="M 3638 0 
L 2494 1828 
L 1122 1828 
L 1122 0 
L 525 0 
L 525 4403 
L 2597 4403 
Q 3341 4403 3745 4070 
Q 4150 3738 4150 3144 
Q 4150 2653 3864 2318 
Q 3578 1984 3075 1897 
L 4325 0 
L 3638 0 
z
M 3550 3138 
Q 3550 3522 3289 3723 
Q 3028 3925 2538 3925 
L 1122 3925 
L 1122 2300 
L 2563 2300 
Q 3034 2300 3292 2520 
Q 3550 2741 3550 3138 
z
" transform="scale(0.015625)"/>
        <path id="LiberationSans-61" d="M 1294 -63 
Q 784 -63 528 206 
Q 272 475 272 944 
Q 272 1469 617 1750 
Q 963 2031 1731 2050 
L 2491 2063 
L 2491 2247 
Q 2491 2659 2316 2837 
Q 2141 3016 1766 3016 
Q 1388 3016 1216 2887 
Q 1044 2759 1009 2478 
L 422 2531 
Q 566 3444 1778 3444 
Q 2416 3444 2737 3151 
Q 3059 2859 3059 2306 
L 3059 850 
Q 3059 600 3125 473 
Q 3191 347 3375 347 
Q 3456 347 3559 369 
L 3559 19 
Q 3347 -31 3125 -31 
Q 2813 -31 2670 133 
Q 2528 297 2509 647 
L 2491 647 
Q 2275 259 1989 98 
Q 1703 -63 1294 -63 
z
M 1422 359 
Q 1731 359 1972 500 
Q 2213 641 2352 886 
Q 2491 1131 2491 1391 
L 2491 1669 
L 1875 1656 
Q 1478 1650 1273 1575 
Q 1069 1500 959 1344 
Q 850 1188 850 934 
Q 850 659 998 509 
Q 1147 359 1422 359 
z
" transform="scale(0.015625)"/>
        <path id="LiberationSans-67" d="M 1713 -1328 
Q 1159 -1328 831 -1111 
Q 503 -894 409 -494 
L 975 -413 
Q 1031 -647 1223 -773 
Q 1416 -900 1728 -900 
Q 2569 -900 2569 84 
L 2569 628 
L 2563 628 
Q 2403 303 2125 139 
Q 1847 -25 1475 -25 
Q 853 -25 561 387 
Q 269 800 269 1684 
Q 269 2581 583 3007 
Q 897 3434 1538 3434 
Q 1897 3434 2161 3270 
Q 2425 3106 2569 2803 
L 2575 2803 
Q 2575 2897 2587 3128 
Q 2600 3359 2613 3381 
L 3147 3381 
Q 3128 3213 3128 2681 
L 3128 97 
Q 3128 -1328 1713 -1328 
z
M 2569 1691 
Q 2569 2103 2456 2401 
Q 2344 2700 2139 2858 
Q 1934 3016 1675 3016 
Q 1244 3016 1047 2703 
Q 850 2391 850 1691 
Q 850 997 1034 694 
Q 1219 391 1666 391 
Q 1931 391 2137 547 
Q 2344 703 2456 995 
Q 2569 1288 2569 1691 
z
" transform="scale(0.015625)"/>
        <path id="LiberationSans-45" d="M 525 0 
L 525 4403 
L 3866 4403 
L 3866 3916 
L 1122 3916 
L 1122 2503 
L 3678 2503 
L 3678 2022 
L 1122 2022 
L 1122 488 
L 3994 488 
L 3994 0 
L 525 0 
z
" transform="scale(0.015625)"/>
        <path id="LiberationSans-76" d="M 1916 0 
L 1250 0 
L 22 3381 
L 622 3381 
L 1366 1181 
Q 1406 1056 1581 441 
L 1691 806 
L 1813 1175 
L 2581 3381 
L 3178 3381 
L 1916 0 
z
" transform="scale(0.015625)"/>
        <path id="LiberationSans-6c" d="M 431 0 
L 431 4638 
L 994 4638 
L 994 0 
L 431 0 
z
" transform="scale(0.015625)"/>
        <path id="LiberationSans-75" d="M 981 3381 
L 981 1238 
Q 981 903 1047 718 
Q 1113 534 1256 453 
Q 1400 372 1678 372 
Q 2084 372 2318 650 
Q 2553 928 2553 1422 
L 2553 3381 
L 3116 3381 
L 3116 722 
Q 3116 131 3134 0 
L 2603 0 
Q 2600 16 2597 84 
Q 2594 153 2589 242 
Q 2584 331 2578 578 
L 2569 578 
Q 2375 228 2120 82 
Q 1866 -63 1488 -63 
Q 931 -63 673 214 
Q 416 491 416 1128 
L 416 3381 
L 981 3381 
z
" transform="scale(0.015625)"/>
        <path id="LiberationSans-74" d="M 1731 25 
Q 1453 -50 1163 -50 
Q 488 -50 488 716 
L 488 2972 
L 97 2972 
L 97 3381 
L 509 3381 
L 675 4138 
L 1050 4138 
L 1050 3381 
L 1675 3381 
L 1675 2972 
L 1050 2972 
L 1050 838 
Q 1050 594 1129 495 
Q 1209 397 1406 397 
Q 1519 397 1731 441 
L 1731 25 
z
" transform="scale(0.015625)"/>
        <path id="LiberationSans-69" d="M 428 4100 
L 428 4638 
L 991 4638 
L 991 4100 
L 428 4100 
z
M 428 0 
L 428 3381 
L 991 3381 
L 991 0 
L 428 0 
z
" transform="scale(0.015625)"/>
        <path id="LiberationSans-6f" d="M 3291 1694 
Q 3291 806 2900 371 
Q 2509 -63 1766 -63 
Q 1025 -63 647 389 
Q 269 841 269 1694 
Q 269 3444 1784 3444 
Q 2559 3444 2925 3017 
Q 3291 2591 3291 1694 
z
M 2700 1694 
Q 2700 2394 2492 2711 
Q 2284 3028 1794 3028 
Q 1300 3028 1079 2704 
Q 859 2381 859 1694 
Q 859 1025 1076 689 
Q 1294 353 1759 353 
Q 2266 353 2483 678 
Q 2700 1003 2700 1694 
z
" transform="scale(0.015625)"/>
        <path id="LiberationSans-6e" d="M 2578 0 
L 2578 2144 
Q 2578 2478 2512 2662 
Q 2447 2847 2303 2928 
Q 2159 3009 1881 3009 
Q 1475 3009 1240 2731 
Q 1006 2453 1006 1959 
L 1006 0 
L 444 0 
L 444 2659 
Q 444 3250 425 3381 
L 956 3381 
Q 959 3366 962 3297 
Q 966 3228 970 3139 
Q 975 3050 981 2803 
L 991 2803 
Q 1184 3153 1439 3298 
Q 1694 3444 2072 3444 
Q 2628 3444 2886 3167 
Q 3144 2891 3144 2253 
L 3144 0 
L 2578 0 
z
" transform="scale(0.015625)"/>
        <path id="LiberationSans-31" d="M 488 0 
L 488 478 
L 1609 478 
L 1609 3866 
L 616 3156 
L 616 3688 
L 1656 4403 
L 2175 4403 
L 2175 478 
L 3247 478 
L 3247 0 
L 488 0 
z
" transform="scale(0.015625)"/>
       </defs>
       <use xlink:href="#LiberationSans-52"/>
       <use xlink:href="#LiberationSans-61" transform="translate(72.216797 0)"/>
       <use xlink:href="#LiberationSans-67" transform="translate(127.832031 0)"/>
       <use xlink:href="#LiberationSans-45" transform="translate(183.447266 0)"/>
       <use xlink:href="#LiberationSans-76" transform="translate(250.146484 0)"/>
       <use xlink:href="#LiberationSans-61" transform="translate(300.146484 0)"/>
       <use xlink:href="#LiberationSans-6c" transform="translate(355.761719 0)"/>
       <use xlink:href="#LiberationSans-75" transform="translate(377.978516 0)"/>
       <use xlink:href="#LiberationSans-61" transform="translate(433.59375 0)"/>
       <use xlink:href="#LiberationSans-74" transform="translate(489.208984 0)"/>
       <use xlink:href="#LiberationSans-69" transform="translate(516.992188 0)"/>
       <use xlink:href="#LiberationSans-6f" transform="translate(539.208984 0)"/>
       <use xlink:href="#LiberationSans-6e" transform="translate(594.824219 0)"/>
       <use xlink:href="#LiberationSans-31" transform="translate(650.439453 0)"/>
      </g>
     </g>
    </g>
    <g id="xtick_2">
     <g id="line2d_3">
      <path d="M 180.252429 479.482224 
L 180.252429 21.89625 
" clip-path="url(#p2a4cc1f8a1)" style="fill: none; stroke: #ffffff; stroke-opacity: 0.3; stroke-linecap: round"/>
     </g>
     <g id="line2d_4"/>
     <g id="text_2">
      <!-- RagEvaluation2 -->
      <g style="fill: #262626" transform="translate(157.119541 541.529382) rotate(-45) scale(0.1 -0.1)">
       <defs>
        <path id="LiberationSans-32" d="M 322 0 
L 322 397 
Q 481 763 711 1042 
Q 941 1322 1194 1548 
Q 1447 1775 1695 1969 
Q 1944 2163 2144 2356 
Q 2344 2550 2467 2762 
Q 2591 2975 2591 3244 
Q 2591 3606 2378 3806 
Q 2166 4006 1788 4006 
Q 1428 4006 1195 3811 
Q 963 3616 922 3263 
L 347 3316 
Q 409 3844 795 4156 
Q 1181 4469 1788 4469 
Q 2453 4469 2811 4155 
Q 3169 3841 3169 3263 
Q 3169 3006 3051 2753 
Q 2934 2500 2703 2247 
Q 2472 1994 1819 1463 
Q 1459 1169 1246 933 
Q 1034 697 941 478 
L 3238 478 
L 3238 0 
L 322 0 
z
" transform="scale(0.015625)"/>
       </defs>
       <use xlink:href="#LiberationSans-52"/>
       <use xlink:href="#LiberationSans-61" transform="translate(72.216797 0)"/>
       <use xlink:href="#LiberationSans-67" transform="translate(127.832031 0)"/>
       <use xlink:href="#LiberationSans-45" transform="translate(183.447266 0)"/>
       <use xlink:href="#LiberationSans-76" transform="translate(250.146484 0)"/>
       <use xlink:href="#LiberationSans-61" transform="translate(300.146484 0)"/>
       <use xlink:href="#LiberationSans-6c" transform="translate(355.761719 0)"/>
       <use xlink:href="#LiberationSans-75" transform="translate(377.978516 0)"/>
       <use xlink:href="#LiberationSans-61" transform="translate(433.59375 0)"/>
       <use xlink:href="#LiberationSans-74" transform="translate(489.208984 0)"/>
       <use xlink:href="#LiberationSans-69" transform="translate(516.992188 0)"/>
       <use xlink:href="#LiberationSans-6f" transform="translate(539.208984 0)"/>
       <use xlink:href="#LiberationSans-6e" transform="translate(594.824219 0)"/>
       <use xlink:href="#LiberationSans-32" transform="translate(650.439453 0)"/>
      </g>
     </g>
    </g>
    <g id="xtick_3">
     <g id="line2d_5">
      <path d="M 255.783432 479.482224 
L 255.783432 21.89625 
" clip-path="url(#p2a4cc1f8a1)" style="fill: none; stroke: #ffffff; stroke-opacity: 0.3; stroke-linecap: round"/>
     </g>
     <g id="line2d_6"/>
     <g id="text_3">
      <!-- RagEvaluation3 -->
      <g style="fill: #262626" transform="translate(232.650544 541.529382) rotate(-45) scale(0.1 -0.1)">
       <defs>
        <path id="LiberationSans-33" d="M 3278 1216 
Q 3278 606 2890 271 
Q 2503 -63 1784 -63 
Q 1116 -63 717 239 
Q 319 541 244 1131 
L 825 1184 
Q 938 403 1784 403 
Q 2209 403 2451 612 
Q 2694 822 2694 1234 
Q 2694 1594 2417 1795 
Q 2141 1997 1619 1997 
L 1300 1997 
L 1300 2484 
L 1606 2484 
Q 2069 2484 2323 2686 
Q 2578 2888 2578 3244 
Q 2578 3597 2370 3801 
Q 2163 4006 1753 4006 
Q 1381 4006 1151 3815 
Q 922 3625 884 3278 
L 319 3322 
Q 381 3863 767 4166 
Q 1153 4469 1759 4469 
Q 2422 4469 2789 4161 
Q 3156 3853 3156 3303 
Q 3156 2881 2920 2617 
Q 2684 2353 2234 2259 
L 2234 2247 
Q 2728 2194 3003 1916 
Q 3278 1638 3278 1216 
z
" transform="scale(0.015625)"/>
       </defs>
       <use xlink:href="#LiberationSans-52"/>
       <use xlink:href="#LiberationSans-61" transform="translate(72.216797 0)"/>
       <use xlink:href="#LiberationSans-67" transform="translate(127.832031 0)"/>
       <use xlink:href="#LiberationSans-45" transform="translate(183.447266 0)"/>
       <use xlink:href="#LiberationSans-76" transform="translate(250.146484 0)"/>
       <use xlink:href="#LiberationSans-61" transform="translate(300.146484 0)"/>
       <use xlink:href="#LiberationSans-6c" transform="translate(355.761719 0)"/>
       <use xlink:href="#LiberationSans-75" transform="translate(377.978516 0)"/>
       <use xlink:href="#LiberationSans-61" transform="translate(433.59375 0)"/>
       <use xlink:href="#LiberationSans-74" transform="translate(489.208984 0)"/>
       <use xlink:href="#LiberationSans-69" transform="translate(516.992188 0)"/>
       <use xlink:href="#LiberationSans-6f" transform="translate(539.208984 0)"/>
       <use xlink:href="#LiberationSans-6e" transform="translate(594.824219 0)"/>
       <use xlink:href="#LiberationSans-33" transform="translate(650.439453 0)"/>
      </g>
     </g>
    </g>
    <g id="xtick_4">
     <g id="line2d_7">
      <path d="M 331.314434 479.482224 
L 331.314434 21.89625 
" clip-path="url(#p2a4cc1f8a1)" style="fill: none; stroke: #ffffff; stroke-opacity: 0.3; stroke-linecap: round"/>
     </g>
     <g id="line2d_8"/>
     <g id="text_4">
      <!-- RagEvaluation4 -->
      <g style="fill: #262626" transform="translate(308.181546 541.529382) rotate(-45) scale(0.1 -0.1)">
       <defs>
        <path id="LiberationSans-34" d="M 2753 997 
L 2753 0 
L 2222 0 
L 2222 997 
L 147 997 
L 147 1434 
L 2163 4403 
L 2753 4403 
L 2753 1441 
L 3372 1441 
L 3372 997 
L 2753 997 
z
M 2222 3769 
Q 2216 3750 2134 3603 
Q 2053 3456 2013 3397 
L 884 1734 
L 716 1503 
L 666 1441 
L 2222 1441 
L 2222 3769 
z
" transform="scale(0.015625)"/>
       </defs>
       <use xlink:href="#LiberationSans-52"/>
       <use xlink:href="#LiberationSans-61" transform="translate(72.216797 0)"/>
       <use xlink:href="#LiberationSans-67" transform="translate(127.832031 0)"/>
       <use xlink:href="#LiberationSans-45" transform="translate(183.447266 0)"/>
       <use xlink:href="#LiberationSans-76" transform="translate(250.146484 0)"/>
       <use xlink:href="#LiberationSans-61" transform="translate(300.146484 0)"/>
       <use xlink:href="#LiberationSans-6c" transform="translate(355.761719 0)"/>
       <use xlink:href="#LiberationSans-75" transform="translate(377.978516 0)"/>
       <use xlink:href="#LiberationSans-61" transform="translate(433.59375 0)"/>
       <use xlink:href="#LiberationSans-74" transform="translate(489.208984 0)"/>
       <use xlink:href="#LiberationSans-69" transform="translate(516.992188 0)"/>
       <use xlink:href="#LiberationSans-6f" transform="translate(539.208984 0)"/>
       <use xlink:href="#LiberationSans-6e" transform="translate(594.824219 0)"/>
       <use xlink:href="#LiberationSans-34" transform="translate(650.439453 0)"/>
      </g>
     </g>
    </g>
    <g id="xtick_5">
     <g id="line2d_9">
      <path d="M 406.845436 479.482224 
L 406.845436 21.89625 
" clip-path="url(#p2a4cc1f8a1)" style="fill: none; stroke: #ffffff; stroke-opacity: 0.3; stroke-linecap: round"/>
     </g>
     <g id="line2d_10"/>
     <g id="text_5">
      <!-- RagEvaluation5 -->
      <g style="fill: #262626" transform="translate(383.712548 541.529382) rotate(-45) scale(0.1 -0.1)">
       <defs>
        <path id="LiberationSans-35" d="M 3291 1434 
Q 3291 738 2877 337 
Q 2463 -63 1728 -63 
Q 1113 -63 734 206 
Q 356 475 256 984 
L 825 1050 
Q 1003 397 1741 397 
Q 2194 397 2450 670 
Q 2706 944 2706 1422 
Q 2706 1838 2448 2094 
Q 2191 2350 1753 2350 
Q 1525 2350 1328 2278 
Q 1131 2206 934 2034 
L 384 2034 
L 531 4403 
L 3034 4403 
L 3034 3925 
L 1044 3925 
L 959 2528 
Q 1325 2809 1869 2809 
Q 2519 2809 2905 2428 
Q 3291 2047 3291 1434 
z
" transform="scale(0.015625)"/>
       </defs>
       <use xlink:href="#LiberationSans-52"/>
       <use xlink:href="#LiberationSans-61" transform="translate(72.216797 0)"/>
       <use xlink:href="#LiberationSans-67" transform="translate(127.832031 0)"/>
       <use xlink:href="#LiberationSans-45" transform="translate(183.447266 0)"/>
       <use xlink:href="#LiberationSans-76" transform="translate(250.146484 0)"/>
       <use xlink:href="#LiberationSans-61" transform="translate(300.146484 0)"/>
       <use xlink:href="#LiberationSans-6c" transform="translate(355.761719 0)"/>
       <use xlink:href="#LiberationSans-75" transform="translate(377.978516 0)"/>
       <use xlink:href="#LiberationSans-61" transform="translate(433.59375 0)"/>
       <use xlink:href="#LiberationSans-74" transform="translate(489.208984 0)"/>
       <use xlink:href="#LiberationSans-69" transform="translate(516.992188 0)"/>
       <use xlink:href="#LiberationSans-6f" transform="translate(539.208984 0)"/>
       <use xlink:href="#LiberationSans-6e" transform="translate(594.824219 0)"/>
       <use xlink:href="#LiberationSans-35" transform="translate(650.439453 0)"/>
      </g>
     </g>
    </g>
    <g id="xtick_6">
     <g id="line2d_11">
      <path d="M 482.376439 479.482224 
L 482.376439 21.89625 
" clip-path="url(#p2a4cc1f8a1)" style="fill: none; stroke: #ffffff; stroke-opacity: 0.3; stroke-linecap: round"/>
     </g>
     <g id="line2d_12"/>
     <g id="text_6">
      <!-- RagEvaluation6 -->
      <g style="fill: #262626" transform="translate(459.243551 541.529382) rotate(-45) scale(0.1 -0.1)">
       <defs>
        <path id="LiberationSans-36" d="M 3278 1441 
Q 3278 744 2900 340 
Q 2522 -63 1856 -63 
Q 1113 -63 719 490 
Q 325 1044 325 2100 
Q 325 3244 734 3856 
Q 1144 4469 1900 4469 
Q 2897 4469 3156 3572 
L 2619 3475 
Q 2453 4013 1894 4013 
Q 1413 4013 1148 3564 
Q 884 3116 884 2266 
Q 1038 2550 1316 2698 
Q 1594 2847 1953 2847 
Q 2563 2847 2920 2465 
Q 3278 2084 3278 1441 
z
M 2706 1416 
Q 2706 1894 2472 2153 
Q 2238 2413 1819 2413 
Q 1425 2413 1183 2183 
Q 941 1953 941 1550 
Q 941 1041 1192 716 
Q 1444 391 1838 391 
Q 2244 391 2475 664 
Q 2706 938 2706 1416 
z
" transform="scale(0.015625)"/>
       </defs>
       <use xlink:href="#LiberationSans-52"/>
       <use xlink:href="#LiberationSans-61" transform="translate(72.216797 0)"/>
       <use xlink:href="#LiberationSans-67" transform="translate(127.832031 0)"/>
       <use xlink:href="#LiberationSans-45" transform="translate(183.447266 0)"/>
       <use xlink:href="#LiberationSans-76" transform="translate(250.146484 0)"/>
       <use xlink:href="#LiberationSans-61" transform="translate(300.146484 0)"/>
       <use xlink:href="#LiberationSans-6c" transform="translate(355.761719 0)"/>
       <use xlink:href="#LiberationSans-75" transform="translate(377.978516 0)"/>
       <use xlink:href="#LiberationSans-61" transform="translate(433.59375 0)"/>
       <use xlink:href="#LiberationSans-74" transform="translate(489.208984 0)"/>
       <use xlink:href="#LiberationSans-69" transform="translate(516.992188 0)"/>
       <use xlink:href="#LiberationSans-6f" transform="translate(539.208984 0)"/>
       <use xlink:href="#LiberationSans-6e" transform="translate(594.824219 0)"/>
       <use xlink:href="#LiberationSans-36" transform="translate(650.439453 0)"/>
      </g>
     </g>
    </g>
    <g id="xtick_7">
     <g id="line2d_13">
      <path d="M 557.907441 479.482224 
L 557.907441 21.89625 
" clip-path="url(#p2a4cc1f8a1)" style="fill: none; stroke: #ffffff; stroke-opacity: 0.3; stroke-linecap: round"/>
     </g>
     <g id="line2d_14"/>
     <g id="text_7">
      <!-- RagEvaluation7 -->
      <g style="fill: #262626" transform="translate(534.774553 541.529382) rotate(-45) scale(0.1 -0.1)">
       <defs>
        <path id="LiberationSans-37" d="M 3238 3947 
Q 2563 2916 2284 2331 
Q 2006 1747 1867 1178 
Q 1728 609 1728 0 
L 1141 0 
Q 1141 844 1498 1776 
Q 1856 2709 2694 3925 
L 328 3925 
L 328 4403 
L 3238 4403 
L 3238 3947 
z
" transform="scale(0.015625)"/>
       </defs>
       <use xlink:href="#LiberationSans-52"/>
       <use xlink:href="#LiberationSans-61" transform="translate(72.216797 0)"/>
       <use xlink:href="#LiberationSans-67" transform="translate(127.832031 0)"/>
       <use xlink:href="#LiberationSans-45" transform="translate(183.447266 0)"/>
       <use xlink:href="#LiberationSans-76" transform="translate(250.146484 0)"/>
       <use xlink:href="#LiberationSans-61" transform="translate(300.146484 0)"/>
       <use xlink:href="#LiberationSans-6c" transform="translate(355.761719 0)"/>
       <use xlink:href="#LiberationSans-75" transform="translate(377.978516 0)"/>
       <use xlink:href="#LiberationSans-61" transform="translate(433.59375 0)"/>
       <use xlink:href="#LiberationSans-74" transform="translate(489.208984 0)"/>
       <use xlink:href="#LiberationSans-69" transform="translate(516.992188 0)"/>
       <use xlink:href="#LiberationSans-6f" transform="translate(539.208984 0)"/>
       <use xlink:href="#LiberationSans-6e" transform="translate(594.824219 0)"/>
       <use xlink:href="#LiberationSans-37" transform="translate(650.439453 0)"/>
      </g>
     </g>
    </g>
    <g id="xtick_8">
     <g id="line2d_15">
      <path d="M 633.438443 479.482224 
L 633.438443 21.89625 
" clip-path="url(#p2a4cc1f8a1)" style="fill: none; stroke: #ffffff; stroke-opacity: 0.3; stroke-linecap: round"/>
     </g>
     <g id="line2d_16"/>
     <g id="text_8">
      <!-- RagEvaluation8 -->
      <g style="fill: #262626" transform="translate(610.305555 541.529382) rotate(-45) scale(0.1 -0.1)">
       <defs>
        <path id="LiberationSans-38" d="M 3281 1228 
Q 3281 619 2893 278 
Q 2506 -63 1781 -63 
Q 1075 -63 676 271 
Q 278 606 278 1222 
Q 278 1653 525 1947 
Q 772 2241 1156 2303 
L 1156 2316 
Q 797 2400 589 2681 
Q 381 2963 381 3341 
Q 381 3844 757 4156 
Q 1134 4469 1769 4469 
Q 2419 4469 2795 4162 
Q 3172 3856 3172 3334 
Q 3172 2956 2962 2675 
Q 2753 2394 2391 2322 
L 2391 2309 
Q 2813 2241 3047 1952 
Q 3281 1663 3281 1228 
z
M 2588 3303 
Q 2588 4050 1769 4050 
Q 1372 4050 1164 3862 
Q 956 3675 956 3303 
Q 956 2925 1170 2726 
Q 1384 2528 1775 2528 
Q 2172 2528 2380 2711 
Q 2588 2894 2588 3303 
z
M 2697 1281 
Q 2697 1691 2453 1898 
Q 2209 2106 1769 2106 
Q 1341 2106 1100 1882 
Q 859 1659 859 1269 
Q 859 359 1788 359 
Q 2247 359 2472 579 
Q 2697 800 2697 1281 
z
" transform="scale(0.015625)"/>
       </defs>
       <use xlink:href="#LiberationSans-52"/>
       <use xlink:href="#LiberationSans-61" transform="translate(72.216797 0)"/>
       <use xlink:href="#LiberationSans-67" transform="translate(127.832031 0)"/>
       <use xlink:href="#LiberationSans-45" transform="translate(183.447266 0)"/>
       <use xlink:href="#LiberationSans-76" transform="translate(250.146484 0)"/>
       <use xlink:href="#LiberationSans-61" transform="translate(300.146484 0)"/>
       <use xlink:href="#LiberationSans-6c" transform="translate(355.761719 0)"/>
       <use xlink:href="#LiberationSans-75" transform="translate(377.978516 0)"/>
       <use xlink:href="#LiberationSans-61" transform="translate(433.59375 0)"/>
       <use xlink:href="#LiberationSans-74" transform="translate(489.208984 0)"/>
       <use xlink:href="#LiberationSans-69" transform="translate(516.992188 0)"/>
       <use xlink:href="#LiberationSans-6f" transform="translate(539.208984 0)"/>
       <use xlink:href="#LiberationSans-6e" transform="translate(594.824219 0)"/>
       <use xlink:href="#LiberationSans-38" transform="translate(650.439453 0)"/>
      </g>
     </g>
    </g>
    <g id="xtick_9">
     <g id="line2d_17">
      <path d="M 708.969446 479.482224 
L 708.969446 21.89625 
" clip-path="url(#p2a4cc1f8a1)" style="fill: none; stroke: #ffffff; stroke-opacity: 0.3; stroke-linecap: round"/>
     </g>
     <g id="line2d_18"/>
     <g id="text_9">
      <!-- RagEvaluation9 -->
      <g style="fill: #262626" transform="translate(685.836558 541.529382) rotate(-45) scale(0.1 -0.1)">
       <defs>
        <path id="LiberationSans-39" d="M 3256 2291 
Q 3256 1156 2842 546 
Q 2428 -63 1663 -63 
Q 1147 -63 836 154 
Q 525 372 391 856 
L 928 941 
Q 1097 391 1672 391 
Q 2156 391 2422 841 
Q 2688 1291 2700 2125 
Q 2575 1844 2272 1673 
Q 1969 1503 1606 1503 
Q 1013 1503 656 1909 
Q 300 2316 300 2988 
Q 300 3678 687 4073 
Q 1075 4469 1766 4469 
Q 2500 4469 2878 3925 
Q 3256 3381 3256 2291 
z
M 2644 2834 
Q 2644 3366 2400 3689 
Q 2156 4013 1747 4013 
Q 1341 4013 1106 3736 
Q 872 3459 872 2988 
Q 872 2506 1106 2226 
Q 1341 1947 1741 1947 
Q 1984 1947 2193 2058 
Q 2403 2169 2523 2372 
Q 2644 2575 2644 2834 
z
" transform="scale(0.015625)"/>
       </defs>
       <use xlink:href="#LiberationSans-52"/>
       <use xlink:href="#LiberationSans-61" transform="translate(72.216797 0)"/>
       <use xlink:href="#LiberationSans-67" transform="translate(127.832031 0)"/>
       <use xlink:href="#LiberationSans-45" transform="translate(183.447266 0)"/>
       <use xlink:href="#LiberationSans-76" transform="translate(250.146484 0)"/>
       <use xlink:href="#LiberationSans-61" transform="translate(300.146484 0)"/>
       <use xlink:href="#LiberationSans-6c" transform="translate(355.761719 0)"/>
       <use xlink:href="#LiberationSans-75" transform="translate(377.978516 0)"/>
       <use xlink:href="#LiberationSans-61" transform="translate(433.59375 0)"/>
       <use xlink:href="#LiberationSans-74" transform="translate(489.208984 0)"/>
       <use xlink:href="#LiberationSans-69" transform="translate(516.992188 0)"/>
       <use xlink:href="#LiberationSans-6f" transform="translate(539.208984 0)"/>
       <use xlink:href="#LiberationSans-6e" transform="translate(594.824219 0)"/>
       <use xlink:href="#LiberationSans-39" transform="translate(650.439453 0)"/>
      </g>
     </g>
    </g>
    <g id="xtick_10">
     <g id="line2d_19">
      <path d="M 784.500448 479.482224 
L 784.500448 21.89625 
" clip-path="url(#p2a4cc1f8a1)" style="fill: none; stroke: #ffffff; stroke-opacity: 0.3; stroke-linecap: round"/>
     </g>
     <g id="line2d_20"/>
     <g id="text_10">
      <!-- RagEvaluation10 -->
      <g style="fill: #262626" transform="translate(759.401472 545.461559) rotate(-45) scale(0.1 -0.1)">
       <defs>
        <path id="LiberationSans-30" d="M 3309 2203 
Q 3309 1100 2920 518 
Q 2531 -63 1772 -63 
Q 1013 -63 631 515 
Q 250 1094 250 2203 
Q 250 3338 620 3903 
Q 991 4469 1791 4469 
Q 2569 4469 2939 3897 
Q 3309 3325 3309 2203 
z
M 2738 2203 
Q 2738 3156 2517 3584 
Q 2297 4013 1791 4013 
Q 1272 4013 1045 3591 
Q 819 3169 819 2203 
Q 819 1266 1048 831 
Q 1278 397 1778 397 
Q 2275 397 2506 840 
Q 2738 1284 2738 2203 
z
" transform="scale(0.015625)"/>
       </defs>
       <use xlink:href="#LiberationSans-52"/>
       <use xlink:href="#LiberationSans-61" transform="translate(72.216797 0)"/>
       <use xlink:href="#LiberationSans-67" transform="translate(127.832031 0)"/>
       <use xlink:href="#LiberationSans-45" transform="translate(183.447266 0)"/>
       <use xlink:href="#LiberationSans-76" transform="translate(250.146484 0)"/>
       <use xlink:href="#LiberationSans-61" transform="translate(300.146484 0)"/>
       <use xlink:href="#LiberationSans-6c" transform="translate(355.761719 0)"/>
       <use xlink:href="#LiberationSans-75" transform="translate(377.978516 0)"/>
       <use xlink:href="#LiberationSans-61" transform="translate(433.59375 0)"/>
       <use xlink:href="#LiberationSans-74" transform="translate(489.208984 0)"/>
       <use xlink:href="#LiberationSans-69" transform="translate(516.992188 0)"/>
       <use xlink:href="#LiberationSans-6f" transform="translate(539.208984 0)"/>
       <use xlink:href="#LiberationSans-6e" transform="translate(594.824219 0)"/>
       <use xlink:href="#LiberationSans-31" transform="translate(650.439453 0)"/>
       <use xlink:href="#LiberationSans-30" transform="translate(706.054688 0)"/>
      </g>
     </g>
    </g>
    <g id="text_11">
     <!-- File Evaluasi -->
     <g style="fill: #262626" transform="translate(413.432813 558.900368) scale(0.11 -0.11)">
      <defs>
       <path id="LiberationSans-46" d="M 1122 3916 
L 1122 2278 
L 3578 2278 
L 3578 1784 
L 1122 1784 
L 1122 0 
L 525 0 
L 525 4403 
L 3653 4403 
L 3653 3916 
L 1122 3916 
z
" transform="scale(0.015625)"/>
       <path id="LiberationSans-65" d="M 863 1572 
Q 863 991 1103 675 
Q 1344 359 1806 359 
Q 2172 359 2392 506 
Q 2613 653 2691 878 
L 3184 738 
Q 2881 -63 1806 -63 
Q 1056 -63 664 384 
Q 272 831 272 1713 
Q 272 2550 664 2997 
Q 1056 3444 1784 3444 
Q 3275 3444 3275 1647 
L 3275 1572 
L 863 1572 
z
M 2694 2003 
Q 2647 2538 2422 2783 
Q 2197 3028 1775 3028 
Q 1366 3028 1127 2754 
Q 888 2481 869 2003 
L 2694 2003 
z
" transform="scale(0.015625)"/>
       <path id="LiberationSans-20" transform="scale(0.015625)"/>
       <path id="LiberationSans-73" d="M 2969 934 
Q 2969 456 2608 196 
Q 2247 -63 1597 -63 
Q 966 -63 623 145 
Q 281 353 178 794 
L 675 891 
Q 747 619 972 492 
Q 1197 366 1597 366 
Q 2025 366 2223 497 
Q 2422 628 2422 891 
Q 2422 1091 2284 1216 
Q 2147 1341 1841 1422 
L 1438 1528 
Q 953 1653 748 1773 
Q 544 1894 428 2066 
Q 313 2238 313 2488 
Q 313 2950 642 3192 
Q 972 3434 1603 3434 
Q 2163 3434 2492 3237 
Q 2822 3041 2909 2606 
L 2403 2544 
Q 2356 2769 2151 2889 
Q 1947 3009 1603 3009 
Q 1222 3009 1040 2893 
Q 859 2778 859 2544 
Q 859 2400 934 2306 
Q 1009 2213 1156 2147 
Q 1303 2081 1775 1966 
Q 2222 1853 2419 1758 
Q 2616 1663 2730 1547 
Q 2844 1431 2906 1279 
Q 2969 1128 2969 934 
z
" transform="scale(0.015625)"/>
      </defs>
      <use xlink:href="#LiberationSans-46"/>
      <use xlink:href="#LiberationSans-69" transform="translate(61.083984 0)"/>
      <use xlink:href="#LiberationSans-6c" transform="translate(83.300781 0)"/>
      <use xlink:href="#LiberationSans-65" transform="translate(105.517578 0)"/>
      <use xlink:href="#LiberationSans-20" transform="translate(161.132812 0)"/>
      <use xlink:href="#LiberationSans-45" transform="translate(188.916016 0)"/>
      <use xlink:href="#LiberationSans-76" transform="translate(255.615234 0)"/>
      <use xlink:href="#LiberationSans-61" transform="translate(305.615234 0)"/>
      <use xlink:href="#LiberationSans-6c" transform="translate(361.230469 0)"/>
      <use xlink:href="#LiberationSans-75" transform="translate(383.447266 0)"/>
      <use xlink:href="#LiberationSans-61" transform="translate(439.0625 0)"/>
      <use xlink:href="#LiberationSans-73" transform="translate(494.677734 0)"/>
      <use xlink:href="#LiberationSans-69" transform="translate(544.677734 0)"/>
     </g>
    </g>
   </g>
   <g id="matplotlib.axis_2">
    <g id="ytick_1">
     <g id="line2d_21">
      <path d="M 39.575938 479.482224 
L 849.645938 479.482224 
" clip-path="url(#p2a4cc1f8a1)" style="fill: none; stroke: #ffffff; stroke-opacity: 0.3; stroke-linecap: round"/>
     </g>
     <g id="line2d_22"/>
     <g id="text_12">
      <!-- 0 -->
      <g style="fill: #262626" transform="translate(27.015 483.105662) scale(0.1 -0.1)">
       <use xlink:href="#LiberationSans-30"/>
      </g>
     </g>
    </g>
    <g id="ytick_2">
     <g id="line2d_23">
      <path d="M 39.575938 384.743927 
L 849.645938 384.743927 
" clip-path="url(#p2a4cc1f8a1)" style="fill: none; stroke: #ffffff; stroke-opacity: 0.3; stroke-linecap: round"/>
     </g>
     <g id="line2d_24"/>
     <g id="text_13">
      <!-- 10 -->
      <g style="fill: #262626" transform="translate(21.454063 388.367365) scale(0.1 -0.1)">
       <use xlink:href="#LiberationSans-31"/>
       <use xlink:href="#LiberationSans-30" transform="translate(55.615234 0)"/>
      </g>
     </g>
    </g>
    <g id="ytick_3">
     <g id="line2d_25">
      <path d="M 39.575938 290.00563 
L 849.645938 290.00563 
" clip-path="url(#p2a4cc1f8a1)" style="fill: none; stroke: #ffffff; stroke-opacity: 0.3; stroke-linecap: round"/>
     </g>
     <g id="line2d_26"/>
     <g id="text_14">
      <!-- 20 -->
      <g style="fill: #262626" transform="translate(21.454063 293.629068) scale(0.1 -0.1)">
       <use xlink:href="#LiberationSans-32"/>
       <use xlink:href="#LiberationSans-30" transform="translate(55.615234 0)"/>
      </g>
     </g>
    </g>
    <g id="ytick_4">
     <g id="line2d_27">
      <path d="M 39.575938 195.267333 
L 849.645938 195.267333 
" clip-path="url(#p2a4cc1f8a1)" style="fill: none; stroke: #ffffff; stroke-opacity: 0.3; stroke-linecap: round"/>
     </g>
     <g id="line2d_28"/>
     <g id="text_15">
      <!-- 30 -->
      <g style="fill: #262626" transform="translate(21.454063 198.890771) scale(0.1 -0.1)">
       <use xlink:href="#LiberationSans-33"/>
       <use xlink:href="#LiberationSans-30" transform="translate(55.615234 0)"/>
      </g>
     </g>
    </g>
    <g id="ytick_5">
     <g id="line2d_29">
      <path d="M 39.575938 100.529036 
L 849.645938 100.529036 
" clip-path="url(#p2a4cc1f8a1)" style="fill: none; stroke: #ffffff; stroke-opacity: 0.3; stroke-linecap: round"/>
     </g>
     <g id="line2d_30"/>
     <g id="text_16">
      <!-- 40 -->
      <g style="fill: #262626" transform="translate(21.454063 104.152474) scale(0.1 -0.1)">
       <use xlink:href="#LiberationSans-34"/>
       <use xlink:href="#LiberationSans-30" transform="translate(55.615234 0)"/>
      </g>
     </g>
    </g>
    <g id="text_17">
     <!-- Jumlah Jawaban Benar -->
     <g style="fill: #262626" transform="translate(15.171563 308.164237) rotate(-90) scale(0.11 -0.11)">
      <defs>
       <path id="LiberationSans-4a" d="M 1428 -63 
Q 309 -63 100 1094 
L 684 1191 
Q 741 828 937 625 
Q 1134 422 1431 422 
Q 1756 422 1943 645 
Q 2131 869 2131 1300 
L 2131 3916 
L 1284 3916 
L 1284 4403 
L 2725 4403 
L 2725 1313 
Q 2725 672 2378 304 
Q 2031 -63 1428 -63 
z
" transform="scale(0.015625)"/>
       <path id="LiberationSans-6d" d="M 2400 0 
L 2400 2144 
Q 2400 2634 2265 2821 
Q 2131 3009 1781 3009 
Q 1422 3009 1212 2734 
Q 1003 2459 1003 1959 
L 1003 0 
L 444 0 
L 444 2659 
Q 444 3250 425 3381 
L 956 3381 
Q 959 3366 962 3297 
Q 966 3228 970 3139 
Q 975 3050 981 2803 
L 991 2803 
Q 1172 3163 1406 3303 
Q 1641 3444 1978 3444 
Q 2363 3444 2586 3291 
Q 2809 3138 2897 2803 
L 2906 2803 
Q 3081 3144 3329 3294 
Q 3578 3444 3931 3444 
Q 4444 3444 4676 3166 
Q 4909 2888 4909 2253 
L 4909 0 
L 4353 0 
L 4353 2144 
Q 4353 2634 4218 2821 
Q 4084 3009 3734 3009 
Q 3366 3009 3161 2736 
Q 2956 2463 2956 1959 
L 2956 0 
L 2400 0 
z
" transform="scale(0.015625)"/>
       <path id="LiberationSans-68" d="M 991 2803 
Q 1172 3134 1426 3289 
Q 1681 3444 2072 3444 
Q 2622 3444 2883 3170 
Q 3144 2897 3144 2253 
L 3144 0 
L 2578 0 
L 2578 2144 
Q 2578 2500 2512 2673 
Q 2447 2847 2297 2928 
Q 2147 3009 1881 3009 
Q 1484 3009 1245 2734 
Q 1006 2459 1006 1994 
L 1006 0 
L 444 0 
L 444 4638 
L 1006 4638 
L 1006 3431 
Q 1006 3241 995 3037 
Q 984 2834 981 2803 
L 991 2803 
z
" transform="scale(0.015625)"/>
       <path id="LiberationSans-77" d="M 3669 0 
L 3016 0 
L 2425 2391 
L 2313 2919 
Q 2284 2778 2225 2514 
Q 2166 2250 1588 0 
L 938 0 
L -9 3381 
L 547 3381 
L 1119 1084 
Q 1141 1009 1253 466 
L 1306 697 
L 2013 3381 
L 2616 3381 
L 3206 1059 
L 3350 466 
L 3447 900 
L 4088 3381 
L 4638 3381 
L 3669 0 
z
" transform="scale(0.015625)"/>
       <path id="LiberationSans-62" d="M 3291 1706 
Q 3291 -63 2047 -63 
Q 1663 -63 1408 76 
Q 1153 216 994 525 
L 988 525 
Q 988 428 975 229 
Q 963 31 956 0 
L 413 0 
Q 431 169 431 697 
L 431 4638 
L 994 4638 
L 994 3316 
Q 994 3113 981 2838 
L 994 2838 
Q 1150 3163 1408 3303 
Q 1666 3444 2047 3444 
Q 2688 3444 2989 3012 
Q 3291 2581 3291 1706 
z
M 2700 1688 
Q 2700 2397 2512 2703 
Q 2325 3009 1903 3009 
Q 1428 3009 1211 2684 
Q 994 2359 994 1653 
Q 994 988 1206 670 
Q 1419 353 1897 353 
Q 2322 353 2511 667 
Q 2700 981 2700 1688 
z
" transform="scale(0.015625)"/>
       <path id="LiberationSans-42" d="M 3931 1241 
Q 3931 653 3503 326 
Q 3075 0 2313 0 
L 525 0 
L 525 4403 
L 2125 4403 
Q 3675 4403 3675 3334 
Q 3675 2944 3456 2678 
Q 3238 2413 2838 2322 
Q 3363 2259 3647 1970 
Q 3931 1681 3931 1241 
z
M 3075 3263 
Q 3075 3619 2831 3772 
Q 2588 3925 2125 3925 
L 1122 3925 
L 1122 2531 
L 2125 2531 
Q 2603 2531 2839 2711 
Q 3075 2891 3075 3263 
z
M 3328 1288 
Q 3328 2066 2234 2066 
L 1122 2066 
L 1122 478 
L 2281 478 
Q 2828 478 3078 681 
Q 3328 884 3328 1288 
z
" transform="scale(0.015625)"/>
       <path id="LiberationSans-72" d="M 444 0 
L 444 2594 
Q 444 2950 425 3381 
L 956 3381 
Q 981 2806 981 2691 
L 994 2691 
Q 1128 3125 1303 3284 
Q 1478 3444 1797 3444 
Q 1909 3444 2025 3413 
L 2025 2897 
Q 1913 2928 1725 2928 
Q 1375 2928 1190 2626 
Q 1006 2325 1006 1763 
L 1006 0 
L 444 0 
z
" transform="scale(0.015625)"/>
      </defs>
      <use xlink:href="#LiberationSans-4a"/>
      <use xlink:href="#LiberationSans-75" transform="translate(50 0)"/>
      <use xlink:href="#LiberationSans-6d" transform="translate(105.615234 0)"/>
      <use xlink:href="#LiberationSans-6c" transform="translate(188.916016 0)"/>
      <use xlink:href="#LiberationSans-61" transform="translate(211.132812 0)"/>
      <use xlink:href="#LiberationSans-68" transform="translate(266.748047 0)"/>
      <use xlink:href="#LiberationSans-20" transform="translate(322.363281 0)"/>
      <use xlink:href="#LiberationSans-4a" transform="translate(350.146484 0)"/>
      <use xlink:href="#LiberationSans-61" transform="translate(400.146484 0)"/>
      <use xlink:href="#LiberationSans-77" transform="translate(455.761719 0)"/>
      <use xlink:href="#LiberationSans-61" transform="translate(527.978516 0)"/>
      <use xlink:href="#LiberationSans-62" transform="translate(583.59375 0)"/>
      <use xlink:href="#LiberationSans-61" transform="translate(639.208984 0)"/>
      <use xlink:href="#LiberationSans-6e" transform="translate(694.824219 0)"/>
      <use xlink:href="#LiberationSans-20" transform="translate(750.439453 0)"/>
      <use xlink:href="#LiberationSans-42" transform="translate(778.222656 0)"/>
      <use xlink:href="#LiberationSans-65" transform="translate(844.921875 0)"/>
      <use xlink:href="#LiberationSans-6e" transform="translate(900.537109 0)"/>
      <use xlink:href="#LiberationSans-61" transform="translate(956.152344 0)"/>
      <use xlink:href="#LiberationSans-72" transform="translate(1011.767578 0)"/>
     </g>
    </g>
   </g>
   <g id="patch_3">
    <path d="M 76.397301 479.482224 
L 95.280052 479.482224 
L 95.280052 53.159888 
L 76.397301 53.159888 
z
" clip-path="url(#p2a4cc1f8a1)" style="fill: #4361ee; opacity: 0.8"/>
   </g>
   <g id="patch_4">
    <path d="M 151.928303 479.482224 
L 170.811054 479.482224 
L 170.811054 53.159888 
L 151.928303 53.159888 
z
" clip-path="url(#p2a4cc1f8a1)" style="fill: #4361ee; opacity: 0.8"/>
   </g>
   <g id="patch_5">
    <path d="M 227.459306 479.482224 
L 246.342056 479.482224 
L 246.342056 43.686058 
L 227.459306 43.686058 
z
" clip-path="url(#p2a4cc1f8a1)" style="fill: #4361ee; opacity: 0.8"/>
   </g>
   <g id="patch_6">
    <path d="M 302.990308 479.482224 
L 321.873059 479.482224 
L 321.873059 53.159888 
L 302.990308 53.159888 
z
" clip-path="url(#p2a4cc1f8a1)" style="fill: #4361ee; opacity: 0.8"/>
   </g>
   <g id="patch_7">
    <path d="M 378.52131 479.482224 
L 397.404061 479.482224 
L 397.404061 53.159888 
L 378.52131 53.159888 
z
" clip-path="url(#p2a4cc1f8a1)" style="fill: #4361ee; opacity: 0.8"/>
   </g>
   <g id="patch_8">
    <path d="M 454.052313 479.482224 
L 472.935063 479.482224 
L 472.935063 53.159888 
L 454.052313 53.159888 
z
" clip-path="url(#p2a4cc1f8a1)" style="fill: #4361ee; opacity: 0.8"/>
   </g>
   <g id="patch_9">
    <path d="M 529.583315 479.482224 
L 548.466066 479.482224 
L 548.466066 72.107547 
L 529.583315 72.107547 
z
" clip-path="url(#p2a4cc1f8a1)" style="fill: #4361ee; opacity: 0.8"/>
   </g>
   <g id="patch_10">
    <path d="M 605.114317 479.482224 
L 623.997068 479.482224 
L 623.997068 53.159888 
L 605.114317 53.159888 
z
" clip-path="url(#p2a4cc1f8a1)" style="fill: #4361ee; opacity: 0.8"/>
   </g>
   <g id="patch_11">
    <path d="M 680.64532 479.482224 
L 699.52807 479.482224 
L 699.52807 62.633718 
L 680.64532 62.633718 
z
" clip-path="url(#p2a4cc1f8a1)" style="fill: #4361ee; opacity: 0.8"/>
   </g>
   <g id="patch_12">
    <path d="M 756.176322 479.482224 
L 775.059073 479.482224 
L 775.059073 62.633718 
L 756.176322 62.633718 
z
" clip-path="url(#p2a4cc1f8a1)" style="fill: #4361ee; opacity: 0.8"/>
   </g>
   <g id="patch_13">
    <path d="M 95.280052 479.482224 
L 114.162802 479.482224 
L 114.162802 422.639246 
L 95.280052 422.639246 
z
" clip-path="url(#p2a4cc1f8a1)" style="fill: #f72585; opacity: 0.8"/>
   </g>
   <g id="patch_14">
    <path d="M 170.811054 479.482224 
L 189.693805 479.482224 
L 189.693805 422.639246 
L 170.811054 422.639246 
z
" clip-path="url(#p2a4cc1f8a1)" style="fill: #f72585; opacity: 0.8"/>
   </g>
   <g id="patch_15">
    <path d="M 246.342056 479.482224 
L 265.224807 479.482224 
L 265.224807 422.639246 
L 246.342056 422.639246 
z
" clip-path="url(#p2a4cc1f8a1)" style="fill: #f72585; opacity: 0.8"/>
   </g>
   <g id="patch_16">
    <path d="M 321.873059 479.482224 
L 340.755809 479.482224 
L 340.755809 432.113076 
L 321.873059 432.113076 
z
" clip-path="url(#p2a4cc1f8a1)" style="fill: #f72585; opacity: 0.8"/>
   </g>
   <g id="patch_17">
    <path d="M 397.404061 479.482224 
L 416.286812 479.482224 
L 416.286812 441.586905 
L 397.404061 441.586905 
z
" clip-path="url(#p2a4cc1f8a1)" style="fill: #f72585; opacity: 0.8"/>
   </g>
   <g id="patch_18">
    <path d="M 472.935063 479.482224 
L 491.817814 479.482224 
L 491.817814 432.113076 
L 472.935063 432.113076 
z
" clip-path="url(#p2a4cc1f8a1)" style="fill: #f72585; opacity: 0.8"/>
   </g>
   <g id="patch_19">
    <path d="M 548.466066 479.482224 
L 567.348816 479.482224 
L 567.348816 413.165416 
L 548.466066 413.165416 
z
" clip-path="url(#p2a4cc1f8a1)" style="fill: #f72585; opacity: 0.8"/>
   </g>
   <g id="patch_20">
    <path d="M 623.997068 479.482224 
L 642.879819 479.482224 
L 642.879819 432.113076 
L 623.997068 432.113076 
z
" clip-path="url(#p2a4cc1f8a1)" style="fill: #f72585; opacity: 0.8"/>
   </g>
   <g id="patch_21">
    <path d="M 699.52807 479.482224 
L 718.410821 479.482224 
L 718.410821 432.113076 
L 699.52807 432.113076 
z
" clip-path="url(#p2a4cc1f8a1)" style="fill: #f72585; opacity: 0.8"/>
   </g>
   <g id="patch_22">
    <path d="M 775.059073 479.482224 
L 793.941823 479.482224 
L 793.941823 413.165416 
L 775.059073 413.165416 
z
" clip-path="url(#p2a4cc1f8a1)" style="fill: #f72585; opacity: 0.8"/>
   </g>
   <g id="patch_23">
    <path d="M 114.162802 479.482224 
L 133.045553 479.482224 
L 133.045553 422.639246 
L 114.162802 422.639246 
z
" clip-path="url(#p2a4cc1f8a1)" style="fill: #4cc9f0; opacity: 0.8"/>
   </g>
   <g id="patch_24">
    <path d="M 189.693805 479.482224 
L 208.576555 479.482224 
L 208.576555 422.639246 
L 189.693805 422.639246 
z
" clip-path="url(#p2a4cc1f8a1)" style="fill: #4cc9f0; opacity: 0.8"/>
   </g>
   <g id="patch_25">
    <path d="M 265.224807 479.482224 
L 284.107558 479.482224 
L 284.107558 422.639246 
L 265.224807 422.639246 
z
" clip-path="url(#p2a4cc1f8a1)" style="fill: #4cc9f0; opacity: 0.8"/>
   </g>
   <g id="patch_26">
    <path d="M 340.755809 479.482224 
L 359.63856 479.482224 
L 359.63856 432.113076 
L 340.755809 432.113076 
z
" clip-path="url(#p2a4cc1f8a1)" style="fill: #4cc9f0; opacity: 0.8"/>
   </g>
   <g id="patch_27">
    <path d="M 416.286812 479.482224 
L 435.169562 479.482224 
L 435.169562 441.586905 
L 416.286812 441.586905 
z
" clip-path="url(#p2a4cc1f8a1)" style="fill: #4cc9f0; opacity: 0.8"/>
   </g>
   <g id="patch_28">
    <path d="M 491.817814 479.482224 
L 510.700565 479.482224 
L 510.700565 432.113076 
L 491.817814 432.113076 
z
" clip-path="url(#p2a4cc1f8a1)" style="fill: #4cc9f0; opacity: 0.8"/>
   </g>
   <g id="patch_29">
    <path d="M 567.348816 479.482224 
L 586.231567 479.482224 
L 586.231567 413.165416 
L 567.348816 413.165416 
z
" clip-path="url(#p2a4cc1f8a1)" style="fill: #4cc9f0; opacity: 0.8"/>
   </g>
   <g id="patch_30">
    <path d="M 642.879819 479.482224 
L 661.762569 479.482224 
L 661.762569 432.113076 
L 642.879819 432.113076 
z
" clip-path="url(#p2a4cc1f8a1)" style="fill: #4cc9f0; opacity: 0.8"/>
   </g>
   <g id="patch_31">
    <path d="M 718.410821 479.482224 
L 737.293572 479.482224 
L 737.293572 432.113076 
L 718.410821 432.113076 
z
" clip-path="url(#p2a4cc1f8a1)" style="fill: #4cc9f0; opacity: 0.8"/>
   </g>
   <g id="patch_32">
    <path d="M 793.941823 479.482224 
L 812.824574 479.482224 
L 812.824574 413.165416 
L 793.941823 413.165416 
z
" clip-path="url(#p2a4cc1f8a1)" style="fill: #4cc9f0; opacity: 0.8"/>
   </g>
   <g id="patch_33">
    <path d="M 39.575938 479.482224 
L 39.575938 21.89625 
" style="fill: none"/>
   </g>
   <g id="patch_34">
    <path d="M 849.645938 479.482224 
L 849.645938 21.89625 
" style="fill: none"/>
   </g>
   <g id="patch_35">
    <path d="M 39.575938 479.482224 
L 849.645937 479.482224 
" style="fill: none"/>
   </g>
   <g id="patch_36">
    <path d="M 39.575938 21.89625 
L 849.645937 21.89625 
" style="fill: none"/>
   </g>
   <g id="text_18">
    <!-- 📊 Perbandingan Kinerja RAG vs OG - Semua File -->
    <g style="fill: #262626" transform="translate(311.726875 15.89625) scale(0.12 -0.12)">
     <defs>
      <path id="LiberationSans-1f4ca" d="M 641 4403 
L 4156 4403 
L 4156 0 
L 641 0 
L 641 4403 
z
M 878 4166 
L 878 238 
L 3919 238 
L 3919 4166 
L 878 4166 
z
" transform="scale(0.015625)"/>
      <path id="LiberationSans-50" d="M 3931 3078 
Q 3931 2453 3523 2084 
Q 3116 1716 2416 1716 
L 1122 1716 
L 1122 0 
L 525 0 
L 525 4403 
L 2378 4403 
Q 3119 4403 3525 4056 
Q 3931 3709 3931 3078 
z
M 3331 3072 
Q 3331 3925 2306 3925 
L 1122 3925 
L 1122 2188 
L 2331 2188 
Q 3331 2188 3331 3072 
z
" transform="scale(0.015625)"/>
      <path id="LiberationSans-64" d="M 2566 544 
Q 2409 219 2151 78 
Q 1894 -63 1513 -63 
Q 872 -63 570 368 
Q 269 800 269 1675 
Q 269 3444 1513 3444 
Q 1897 3444 2153 3303 
Q 2409 3163 2566 2856 
L 2572 2856 
L 2566 3234 
L 2566 4638 
L 3128 4638 
L 3128 697 
Q 3128 169 3147 0 
L 2609 0 
Q 2600 50 2589 231 
Q 2578 413 2578 544 
L 2566 544 
z
M 859 1694 
Q 859 984 1046 678 
Q 1234 372 1656 372 
Q 2134 372 2350 703 
Q 2566 1034 2566 1731 
Q 2566 2403 2350 2715 
Q 2134 3028 1663 3028 
Q 1238 3028 1048 2714 
Q 859 2400 859 1694 
z
" transform="scale(0.015625)"/>
      <path id="LiberationSans-4b" d="M 3456 0 
L 1697 2125 
L 1122 1688 
L 1122 0 
L 525 0 
L 525 4403 
L 1122 4403 
L 1122 2197 
L 3244 4403 
L 3947 4403 
L 2072 2491 
L 4197 0 
L 3456 0 
z
" transform="scale(0.015625)"/>
      <path id="LiberationSans-6a" d="M 428 4100 
L 428 4638 
L 991 4638 
L 991 4100 
L 428 4100 
z
M 991 -419 
Q 991 -897 803 -1112 
Q 616 -1328 241 -1328 
Q 0 -1328 -156 -1300 
L -156 -866 
L 38 -884 
Q 253 -884 340 -771 
Q 428 -659 428 -334 
L 428 3381 
L 991 3381 
L 991 -419 
z
" transform="scale(0.015625)"/>
      <path id="LiberationSans-41" d="M 3647 0 
L 3144 1288 
L 1138 1288 
L 631 0 
L 13 0 
L 1809 4403 
L 2488 4403 
L 4256 0 
L 3647 0 
z
M 2141 3953 
L 2113 3866 
Q 2034 3606 1881 3200 
L 1319 1753 
L 2966 1753 
L 2400 3206 
Q 2313 3422 2225 3694 
L 2141 3953 
z
" transform="scale(0.015625)"/>
      <path id="LiberationSans-47" d="M 322 2222 
Q 322 3294 897 3881 
Q 1472 4469 2513 4469 
Q 3244 4469 3700 4222 
Q 4156 3975 4403 3431 
L 3834 3263 
Q 3647 3638 3317 3809 
Q 2988 3981 2497 3981 
Q 1734 3981 1331 3520 
Q 928 3059 928 2222 
Q 928 1388 1356 905 
Q 1784 422 2541 422 
Q 2972 422 3345 553 
Q 3719 684 3950 909 
L 3950 1703 
L 2634 1703 
L 2634 2203 
L 4500 2203 
L 4500 684 
Q 4150 328 3642 132 
Q 3134 -63 2541 -63 
Q 1850 -63 1350 212 
Q 850 488 586 1005 
Q 322 1522 322 2222 
z
" transform="scale(0.015625)"/>
      <path id="LiberationSans-4f" d="M 4672 2222 
Q 4672 1531 4408 1012 
Q 4144 494 3650 215 
Q 3156 -63 2484 -63 
Q 1806 -63 1314 212 
Q 822 488 562 1008 
Q 303 1528 303 2222 
Q 303 3278 881 3873 
Q 1459 4469 2491 4469 
Q 3163 4469 3656 4201 
Q 4150 3934 4411 3425 
Q 4672 2916 4672 2222 
z
M 4063 2222 
Q 4063 3044 3652 3512 
Q 3241 3981 2491 3981 
Q 1734 3981 1321 3518 
Q 909 3056 909 2222 
Q 909 1394 1326 908 
Q 1744 422 2484 422 
Q 3247 422 3655 892 
Q 4063 1363 4063 2222 
z
" transform="scale(0.015625)"/>
      <path id="LiberationSans-2d" d="M 284 1450 
L 284 1950 
L 1847 1950 
L 1847 1450 
L 284 1450 
z
" transform="scale(0.015625)"/>
      <path id="LiberationSans-53" d="M 3975 1216 
Q 3975 606 3498 271 
Q 3022 -63 2156 -63 
Q 547 -63 291 1056 
L 869 1172 
Q 969 775 1294 589 
Q 1619 403 2178 403 
Q 2756 403 3070 601 
Q 3384 800 3384 1184 
Q 3384 1400 3286 1534 
Q 3188 1669 3009 1756 
Q 2831 1844 2584 1903 
Q 2338 1963 2038 2031 
Q 1516 2147 1245 2262 
Q 975 2378 819 2520 
Q 663 2663 580 2853 
Q 497 3044 497 3291 
Q 497 3856 930 4162 
Q 1363 4469 2169 4469 
Q 2919 4469 3316 4239 
Q 3713 4009 3872 3456 
L 3284 3353 
Q 3188 3703 2916 3861 
Q 2644 4019 2163 4019 
Q 1634 4019 1356 3844 
Q 1078 3669 1078 3322 
Q 1078 3119 1186 2986 
Q 1294 2853 1497 2761 
Q 1700 2669 2306 2534 
Q 2509 2488 2711 2439 
Q 2913 2391 3097 2323 
Q 3281 2256 3442 2165 
Q 3603 2075 3722 1944 
Q 3841 1813 3908 1634 
Q 3975 1456 3975 1216 
z
" transform="scale(0.015625)"/>
     </defs>
     <use xlink:href="#LiberationSans-1f4ca"/>
     <use xlink:href="#LiberationSans-20" transform="translate(75 0)"/>
     <use xlink:href="#LiberationSans-50" transform="translate(102.783203 0)"/>
     <use xlink:href="#LiberationSans-65" transform="translate(169.482422 0)"/>
     <use xlink:href="#LiberationSans-72" transform="translate(225.097656 0)"/>
     <use xlink:href="#LiberationSans-62" transform="translate(258.398438 0)"/>
     <use xlink:href="#LiberationSans-61" transform="translate(314.013672 0)"/>
     <use xlink:href="#LiberationSans-6e" transform="translate(369.628906 0)"/>
     <use xlink:href="#LiberationSans-64" transform="translate(425.244141 0)"/>
     <use xlink:href="#LiberationSans-69" transform="translate(480.859375 0)"/>
     <use xlink:href="#LiberationSans-6e" transform="translate(503.076172 0)"/>
     <use xlink:href="#LiberationSans-67" transform="translate(558.691406 0)"/>
     <use xlink:href="#LiberationSans-61" transform="translate(614.306641 0)"/>
     <use xlink:href="#LiberationSans-6e" transform="translate(669.921875 0)"/>
     <use xlink:href="#LiberationSans-20" transform="translate(725.537109 0)"/>
     <use xlink:href="#LiberationSans-4b" transform="translate(753.320312 0)"/>
     <use xlink:href="#LiberationSans-69" transform="translate(820.019531 0)"/>
     <use xlink:href="#LiberationSans-6e" transform="translate(842.236328 0)"/>
     <use xlink:href="#LiberationSans-65" transform="translate(897.851562 0)"/>
     <use xlink:href="#LiberationSans-72" transform="translate(953.466797 0)"/>
     <use xlink:href="#LiberationSans-6a" transform="translate(986.767578 0)"/>
     <use xlink:href="#LiberationSans-61" transform="translate(1008.984375 0)"/>
     <use xlink:href="#LiberationSans-20" transform="translate(1064.599609 0)"/>
     <use xlink:href="#LiberationSans-52" transform="translate(1092.382812 0)"/>
     <use xlink:href="#LiberationSans-41" transform="translate(1164.599609 0)"/>
     <use xlink:href="#LiberationSans-47" transform="translate(1231.298828 0)"/>
     <use xlink:href="#LiberationSans-20" transform="translate(1309.082031 0)"/>
     <use xlink:href="#LiberationSans-76" transform="translate(1336.865234 0)"/>
     <use xlink:href="#LiberationSans-73" transform="translate(1386.865234 0)"/>
     <use xlink:href="#LiberationSans-20" transform="translate(1436.865234 0)"/>
     <use xlink:href="#LiberationSans-4f" transform="translate(1464.648438 0)"/>
     <use xlink:href="#LiberationSans-47" transform="translate(1542.431641 0)"/>
     <use xlink:href="#LiberationSans-20" transform="translate(1620.214844 0)"/>
     <use xlink:href="#LiberationSans-2d" transform="translate(1647.998047 0)"/>
     <use xlink:href="#LiberationSans-20" transform="translate(1681.298828 0)"/>
     <use xlink:href="#LiberationSans-53" transform="translate(1709.082031 0)"/>
     <use xlink:href="#LiberationSans-65" transform="translate(1775.78125 0)"/>
     <use xlink:href="#LiberationSans-6d" transform="translate(1831.396484 0)"/>
     <use xlink:href="#LiberationSans-75" transform="translate(1914.697266 0)"/>
     <use xlink:href="#LiberationSans-61" transform="translate(1970.3125 0)"/>
     <use xlink:href="#LiberationSans-20" transform="translate(2025.927734 0)"/>
     <use xlink:href="#LiberationSans-46" transform="translate(2053.710938 0)"/>
     <use xlink:href="#LiberationSans-69" transform="translate(2114.794922 0)"/>
     <use xlink:href="#LiberationSans-6c" transform="translate(2137.011719 0)"/>
     <use xlink:href="#LiberationSans-65" transform="translate(2159.228516 0)"/>
    </g>
   </g>
   <g id="legend_1">
    <g id="patch_37">
     <path d="M 738.149063 38.143125 
L 758.149063 38.143125 
L 758.149063 31.143125 
L 738.149063 31.143125 
z
" style="fill: #4361ee; opacity: 0.8"/>
    </g>
    <g id="text_19">
     <!-- RAG Benar -->
     <g style="fill: #262626" transform="translate(766.149063 38.143125) scale(0.1 -0.1)">
      <use xlink:href="#LiberationSans-52"/>
      <use xlink:href="#LiberationSans-41" transform="translate(72.216797 0)"/>
      <use xlink:href="#LiberationSans-47" transform="translate(138.916016 0)"/>
      <use xlink:href="#LiberationSans-20" transform="translate(216.699219 0)"/>
      <use xlink:href="#LiberationSans-42" transform="translate(244.482422 0)"/>
      <use xlink:href="#LiberationSans-65" transform="translate(311.181641 0)"/>
      <use xlink:href="#LiberationSans-6e" transform="translate(366.796875 0)"/>
      <use xlink:href="#LiberationSans-61" transform="translate(422.412109 0)"/>
      <use xlink:href="#LiberationSans-72" transform="translate(478.027344 0)"/>
     </g>
    </g>
    <g id="patch_38">
     <path d="M 738.149063 52.465 
L 758.149063 52.465 
L 758.149063 45.465 
L 738.149063 45.465 
z
" style="fill: #f72585; opacity: 0.8"/>
    </g>
    <g id="text_20">
     <!-- OG Benar -->
     <g style="fill: #262626" transform="translate(766.149063 52.465) scale(0.1 -0.1)">
      <use xlink:href="#LiberationSans-4f"/>
      <use xlink:href="#LiberationSans-47" transform="translate(77.783203 0)"/>
      <use xlink:href="#LiberationSans-20" transform="translate(155.566406 0)"/>
      <use xlink:href="#LiberationSans-42" transform="translate(183.349609 0)"/>
      <use xlink:href="#LiberationSans-65" transform="translate(250.048828 0)"/>
      <use xlink:href="#LiberationSans-6e" transform="translate(305.664062 0)"/>
      <use xlink:href="#LiberationSans-61" transform="translate(361.279297 0)"/>
      <use xlink:href="#LiberationSans-72" transform="translate(416.894531 0)"/>
     </g>
    </g>
    <g id="patch_39">
     <path d="M 738.149063 66.786875 
L 758.149063 66.786875 
L 758.149063 59.786875 
L 738.149063 59.786875 
z
" style="fill: #4cc9f0; opacity: 0.8"/>
    </g>
    <g id="text_21">
     <!-- Keduanya Benar -->
     <g style="fill: #262626" transform="translate(766.149063 66.786875) scale(0.1 -0.1)">
      <defs>
       <path id="LiberationSans-79" d="M 597 -1328 
Q 366 -1328 209 -1294 
L 209 -872 
Q 328 -891 472 -891 
Q 997 -891 1303 -119 
L 1356 16 
L 16 3381 
L 616 3381 
L 1328 1513 
Q 1344 1469 1366 1408 
Q 1388 1347 1506 1000 
Q 1625 653 1634 613 
L 1853 1228 
L 2594 3381 
L 3188 3381 
L 1888 0 
Q 1678 -541 1497 -805 
Q 1316 -1069 1095 -1198 
Q 875 -1328 597 -1328 
z
" transform="scale(0.015625)"/>
      </defs>
      <use xlink:href="#LiberationSans-4b"/>
      <use xlink:href="#LiberationSans-65" transform="translate(66.699219 0)"/>
      <use xlink:href="#LiberationSans-64" transform="translate(122.314453 0)"/>
      <use xlink:href="#LiberationSans-75" transform="translate(177.929688 0)"/>
      <use xlink:href="#LiberationSans-61" transform="translate(233.544922 0)"/>
      <use xlink:href="#LiberationSans-6e" transform="translate(289.160156 0)"/>
      <use xlink:href="#LiberationSans-79" transform="translate(344.775391 0)"/>
      <use xlink:href="#LiberationSans-61" transform="translate(394.775391 0)"/>
      <use xlink:href="#LiberationSans-20" transform="translate(450.390625 0)"/>
      <use xlink:href="#LiberationSans-42" transform="translate(478.173828 0)"/>
      <use xlink:href="#LiberationSans-65" transform="translate(544.873047 0)"/>
      <use xlink:href="#LiberationSans-6e" transform="translate(600.488281 0)"/>
      <use xlink:href="#LiberationSans-61" transform="translate(656.103516 0)"/>
      <use xlink:href="#LiberationSans-72" transform="translate(711.71875 0)"/>
     </g>
    </g>
   </g>
  </g>
 </g>
 <defs>
  <clipPath id="p2a4cc1f8a1">
   <rect x="39.575938" y="21.89625" width="810.07" height="457.585974"/>
  </clipPath>
 </defs>
</svg>
